<svg width="444" height="446" viewBox="0 0 444 446" fill="none" xmlns="http://www.w3.org/2000/svg">
<path d="M227.412 0.073388C187.349 -0.955081 147.201 8.82896 111.892 29.2566C109.2 30.8137 106.56 32.3389 106.026 32.6451C104.825 33.3336 93.6309 40.7819 92.8661 41.4013C92.5601 41.6491 89.8453 43.7221 86.833 46.0078C74.5926 55.2955 55.7708 73.8028 48.0869 84.1071C47.322 85.1328 45.6949 87.2842 44.4712 88.8876C43.2474 90.491 41.8706 92.3701 41.4117 93.0635C40.9528 93.7568 40.0667 94.9783 39.442 95.7778C38.3845 97.1312 34.0477 103.75 32.7897 105.93C32.4837 106.461 31.0777 108.855 29.665 111.25C25.9077 117.621 16.9362 135.664 16.9362 136.85C16.9362 137.015 16.572 137.941 16.1267 138.905C15.3216 140.651 14.3044 143.394 12.6881 148.177C12.2225 149.555 11.6365 151.184 11.3866 151.796C7.62473 161.014 2.81923 183.421 0.997973 200.236C-0.845567 217.257 -0.0625086 243.39 2.7493 258.698C4.28937 267.083 4.618 268.727 5.69574 273.453C17.2246 324.01 49.5847 373.025 90.9191 402.538C94.9331 405.404 105.646 412.501 107.973 413.835C123.666 422.831 131.86 426.766 144.877 431.556C165.215 439.041 181.842 442.623 206.9 444.918C213.43 445.515 229.978 445.528 236.382 444.938C249.805 443.702 254.087 443.169 261.414 441.821C277.128 438.929 296.725 433.171 307.583 428.254C309.113 427.561 311.741 426.379 313.424 425.628C349.599 409.469 382.307 381.829 405.871 347.505C409.363 342.419 417.377 328.994 418.547 326.271C418.858 325.547 419.359 324.58 419.662 324.121C420.431 322.952 426.004 310.893 426.866 308.531C427.257 307.459 427.907 305.83 428.31 304.912C432.717 294.864 436.688 281.121 440.455 262.875C445.259 239.605 445.046 205.753 439.934 179.914C437.246 166.33 431.864 148.155 427.95 139.439C427.373 138.154 426.902 136.958 426.902 136.782C426.902 135.896 416.21 114.101 415.076 112.676C414.768 112.29 414.112 111.245 413.617 110.355C411.403 106.373 410.41 104.758 406.942 99.4952C389.225 72.6022 363.848 48.2688 336.509 31.9615C329.235 27.6227 325.761 25.7423 318.419 22.1754C289.681 8.21429 258.572 0.873322 227.412 0.073388ZM226.053 4.94739C257.24 5.53129 288.377 12.79 317.04 26.8261C380.524 57.9135 424.822 117.558 436.322 187.43C438.975 203.547 439.795 229.526 438.133 244.779C426.862 348.243 348.314 427.286 244.726 439.407C237.915 440.203 212.205 440.525 204.675 439.907C160.243 436.261 114.739 417.655 82.8533 390.095C57.1345 367.866 38.4288 343.505 25.1389 314.933C-22.0206 213.545 14.8361 93.1447 110.654 35.5791C145.773 14.4805 185.955 4.19667 226.053 4.94739ZM222.201 81.9637C220.978 81.9622 219.753 82.1846 218.859 82.6304C217.351 83.3828 215.082 89.0503 215.006 92.2577C214.968 93.8405 214.732 94.0388 211.767 94.96C210.008 95.5067 206.691 96.9313 204.397 98.1267C201.09 99.8492 200.109 100.149 199.668 99.5741C198.765 98.3952 191.806 94.7262 190.474 94.7262C188.527 94.7262 184.927 98.6876 184.927 100.83C184.927 102.697 188.32 109.127 189.733 109.937C190.388 110.312 190.242 110.901 188.907 113.277C187.221 116.278 184.927 122.47 184.927 124.018C184.927 124.615 184.627 124.795 184.019 124.562C182.224 123.872 173.813 126.919 173.223 128.472C171.903 131.947 172.889 135.99 175.285 136.929C177.852 137.934 181.762 138.854 183.326 138.821C184.648 138.793 184.871 139.112 185.718 142.231C186.232 144.123 187.6 147.468 188.757 149.664C190.761 153.467 190.813 153.697 189.86 154.514C188.42 155.748 185.484 161.803 185.484 163.538C185.484 165.506 189.271 169.335 191.219 169.335C192.865 169.335 199.214 165.705 200.126 164.243C200.712 163.304 200.883 163.328 203.137 164.65C204.452 165.421 207.089 166.638 208.996 167.355C213.226 168.944 213.127 168.519 211.693 179.001C206.765 215.024 207.228 212.369 205.61 213.851C204.105 215.231 181.216 236.632 176.588 240.988C174.995 242.487 173.896 243.146 173.557 242.806C172.135 241.383 164.418 244.337 162.423 247.068C161.932 247.739 161.262 247.558 158.225 245.932C156.237 244.867 153.047 243.571 151.135 243.052C147.943 242.185 147.658 241.983 147.658 240.579C147.658 237.633 145.462 231.739 144.01 230.786C142.079 229.52 137.232 230.004 135.948 231.59C134.77 233.046 133.044 239.806 133.491 241.214C133.717 241.927 133.56 242.273 133.008 242.273C131.323 242.273 124.246 244.992 121.452 246.712C118.911 248.277 118.493 248.386 118.054 247.602C117.445 246.513 110.284 242.83 108.776 242.83C106.326 242.83 102.218 247.84 102.985 249.893C103.551 251.409 106.538 256.316 107.675 257.597C108.641 258.685 108.628 258.805 107.255 261.216C106.474 262.587 105.161 265.714 104.338 268.164C103.093 271.866 102.655 272.592 101.747 272.468C99.5406 272.166 92.3509 274.885 91.6231 276.296C90.5935 278.292 90.7523 282.032 91.9295 283.487C93.0315 284.849 98.5067 286.794 101.276 286.807C102.911 286.816 103.062 287 103.91 290.017C104.405 291.778 105.787 295.163 106.981 297.54C108.623 300.807 108.979 301.962 108.44 302.273C107.313 302.922 103.712 309.872 103.73 311.36C103.758 313.457 107.775 317.439 109.865 317.439C111.071 317.439 118.238 313.215 118.869 312.132C119.185 311.589 120.036 311.826 122.426 313.122C124.154 314.058 127.347 315.393 129.521 316.088C132.553 317.058 133.432 317.569 133.297 318.286C133.045 319.621 135.359 326.998 136.392 328.157C137.454 329.344 143.021 329.519 144.534 328.411C145.581 327.645 147.658 321.005 147.658 318.425C147.658 317.331 147.941 316.88 148.631 316.871C150.339 316.85 156.974 314.28 159.778 312.553C162.246 311.033 162.54 310.968 163.076 311.826C164.216 313.655 171.72 317.011 173.312 316.406C175.036 315.75 177.57 312.844 178.035 310.989C178.401 309.529 174.406 302.046 172.965 301.492C172.404 301.277 172.756 300.143 174.38 296.928C175.569 294.575 176.845 291.338 177.215 289.733C177.811 287.147 178.05 286.816 179.321 286.809C181.395 286.799 187.777 284.7 188.941 283.646C190.163 282.539 190.3 277.045 189.144 275.519C188.343 274.462 181.761 272.339 179.283 272.339C177.961 272.339 177.735 272.036 177.12 269.416C176.743 267.809 176.074 265.782 175.634 264.911C175.193 264.04 174.913 263.255 175.012 263.167C175.222 262.98 178.731 260.831 194.384 251.299C217.797 237.043 222.078 234.478 222.467 234.478C222.905 234.478 227.804 237.428 245.373 248.268C251.748 252.202 259.528 256.993 262.662 258.917C265.796 260.841 268.475 262.599 268.614 262.825C268.754 263.051 268.189 265.35 267.359 267.933C266.151 271.691 265.655 272.593 264.875 272.443C263.131 272.107 255.559 274.678 254.707 275.895C253.422 277.731 253.672 282.049 255.156 283.657C256.407 285.013 261.774 286.816 264.558 286.816C265.804 286.816 266.066 287.202 266.92 290.296C267.447 292.21 268.874 295.596 270.09 297.822C271.953 301.233 272.162 301.922 271.418 302.208C270.284 302.643 266.698 309.743 266.698 311.552C266.698 313.151 270.098 316.737 272.087 317.237C273.463 317.582 280.699 313.712 281.562 312.169C281.921 311.525 282.792 311.774 286.222 313.499C288.541 314.666 291.731 315.952 293.309 316.357C295.767 316.987 296.18 317.286 296.18 318.433C296.18 320.977 298.489 327.457 299.698 328.305C301.43 329.519 305.742 329.368 307.437 328.034C308.816 326.948 310.643 321.462 310.643 318.404C310.643 317.288 311.078 316.982 313.563 316.346C315.169 315.935 318.515 314.553 320.999 313.275C324.945 311.244 325.585 311.061 326.076 311.829C326.384 312.311 328.52 313.665 330.821 314.838C334.891 316.91 335.052 316.945 336.714 316.085C338.469 315.176 341.237 311.642 341.237 310.308C341.237 309.277 336.822 301.924 335.889 301.401C335.292 301.067 335.595 300.094 337.307 296.837C338.505 294.56 339.795 291.292 340.176 289.574C340.784 286.83 341.014 286.477 342.066 286.679C343.989 287.047 351.161 284.626 352.093 283.295C353.08 281.884 353.174 277.966 352.27 275.979C351.569 274.438 348.176 273.116 343.395 272.521L340.825 272.201L339.884 268.791C339.367 266.915 337.978 263.583 336.798 261.385C335.254 258.509 334.854 257.314 335.369 257.116C336.5 256.682 340.125 249.774 340.125 248.053C340.125 245.811 336.564 242.274 334.31 242.275C332.648 242.277 326.521 245.512 325.354 247.005C324.878 247.614 323.983 247.358 320.576 245.644C318.27 244.485 315.092 243.205 313.513 242.8C311.036 242.164 310.643 241.876 310.643 240.698C310.643 238.049 308.413 231.754 307.164 230.879C305.448 229.676 301.065 229.772 299.491 231.047C298.14 232.143 296.586 236.824 296.506 240.044C296.458 241.966 296.409 242.005 292.563 243.12C290.421 243.742 287.005 245.182 284.972 246.32C282.029 247.967 281.213 248.223 280.965 247.578C280.55 246.494 273.21 242.83 271.454 242.83C270.401 242.83 266.044 239.069 253.489 227.317L236.915 211.806L235.631 202.68C234.051 191.456 232.895 183.093 232.212 177.965C231.926 175.821 231.531 172.922 231.333 171.521L230.972 168.973L235.068 167.469C237.32 166.642 240.278 165.266 241.641 164.411L244.118 162.856L245.257 164.099C246.583 165.548 252.631 168.775 254.023 168.777C255.356 168.779 258.638 165.771 259.454 163.8C260.077 162.294 259.942 161.808 257.846 158.007C256.587 155.725 255.182 153.715 254.723 153.538C254.036 153.275 254.225 152.552 255.791 149.445C257.766 145.527 259.466 140.939 259.466 139.528C259.466 138.999 260.033 138.712 261.077 138.712C263.846 138.712 269.93 136.546 270.849 135.232C272.028 133.548 271.959 129.124 270.731 127.627C269.646 126.305 262.22 123.968 260.519 124.413C259.754 124.613 259.467 124.394 259.467 123.609C259.467 121.998 256.348 114.228 254.772 111.912C253.438 109.952 253.428 109.86 254.423 108.958C256.054 107.481 258.91 101.691 258.91 99.8634C258.91 97.8114 255.193 94.1694 253.098 94.1694C251.666 94.1694 245.131 97.7249 244.152 99.0369C243.678 99.6718 243.026 99.5155 240.409 98.1376C238.666 97.2198 235.482 95.9015 233.334 95.209C229.65 94.0213 229.425 93.8538 229.379 92.2501C229.287 89.0251 227.035 83.3949 225.535 82.638C224.647 82.1898 223.425 81.9653 222.201 81.9637ZM220.528 104.605V114.962V125.319L218.934 126.144C217.318 126.981 215.53 129.956 215.513 131.835C215.507 132.454 212.418 135.581 207.756 139.685C203.494 143.437 199.873 146.506 199.71 146.506C199.546 146.506 198.935 145.566 198.351 144.418C189.826 127.667 199.87 107.932 218.442 104.941L220.528 104.605ZM223.866 104.605L225.952 104.941C244.386 107.91 254.606 127.441 246.319 143.861C245.585 145.316 244.801 146.493 244.577 146.479C243.181 146.385 229.115 132.932 228.789 131.378C228.234 128.741 227.119 127.003 225.415 126.121L223.866 125.319V114.962V104.605ZM163.973 127.018C163.21 127.018 153.651 133.46 148.981 137.12C121.724 158.484 105.392 190.669 103.888 225.986C103.702 230.35 103.704 233.92 103.892 233.92C104.081 233.92 106.017 232.766 108.196 231.355C112.516 228.558 118.765 225.526 122.487 224.423C123.787 224.037 124.856 223.449 124.862 223.114C124.906 220.67 126.648 209.936 127.629 206.069C133.226 184.005 146.317 163.973 163.537 151.13L166.902 148.621L165.875 144.641C165.311 142.451 164.698 137.59 164.513 133.839C164.328 130.088 164.085 127.018 163.973 127.018ZM222.197 127.018C226.763 127.018 228.419 133.579 224.382 135.669C222.497 136.644 222.39 136.646 220.195 135.688C215.947 133.837 217.522 127.018 222.197 127.018ZM280.668 127.575C280.266 127.575 280.048 129.092 280.046 131.89C280.044 136.498 278.889 144.63 277.86 147.279C277.517 148.164 277.306 148.925 277.391 148.971C281.217 151.06 291.91 160.934 296.731 166.828C308.586 181.325 317.02 201.455 318.715 219.298L319.099 223.329L321.406 223.939C324.483 224.752 333.044 228.965 336.509 231.37C338.039 232.433 339.516 233.316 339.791 233.333C340.52 233.378 339.774 217.322 338.769 211.308C333.253 178.331 314.428 149.362 286.647 131.099C283.699 129.161 281.008 127.575 280.668 127.575ZM226.837 136.687C227.308 136.391 228.871 137.689 233.886 142.089C243.627 150.633 242.916 149.482 240.037 152.039C238.689 153.235 236.006 154.985 234.075 155.928C229.88 157.975 229.525 158.009 229.191 156.389C228.771 154.359 226.64 138.521 226.644 137.458C226.645 137.061 226.68 136.786 226.837 136.687ZM216.677 137.626C217.452 138.053 216.944 140.843 216.114 146.526C215.483 150.851 214.966 155.122 214.966 156.016C214.966 156.961 214.675 157.629 214.27 157.612C212.197 157.525 202.172 151.106 202.172 149.866C202.172 149.59 205.488 146.457 209.542 142.904C213.844 139.134 215.902 137.198 216.677 137.626ZM164.599 179.357C148.709 179.357 149.883 178.291 149.883 192.72C149.883 203.263 149.893 203.36 151.249 204.716C152.614 206.082 152.616 206.082 164.599 206.082H176.583V204.423V202.764L165.041 202.614L153.499 202.463V192.72V182.976L165.041 182.825L176.583 182.675V181.016V179.357L164.599 179.357ZM287.966 179.465C285.877 179.383 283.061 179.437 279.264 179.486L267.532 179.636L267.384 192.86L267.234 206.082H268.892H270.548L270.709 201.211L270.87 196.339L276.174 196.181L281.478 196.024L285.596 201.053C289.523 205.851 289.815 206.084 291.92 206.084C293.965 206.084 294.066 206.012 293.304 205.109C292.852 204.573 291.018 202.38 289.229 200.236L285.976 196.339L288.714 196.165C293.317 195.871 293.955 194.834 293.955 187.652C293.955 181.175 294.234 179.71 287.966 179.465ZM270.87 182.976H280.605H290.339L290.5 187.848L290.661 192.72H280.887C269.691 192.72 270.463 193.146 270.705 187.1L270.87 182.976ZM138.758 252.7V262.982V273.264L137.37 274.007C135.562 274.975 134.363 276.855 134.202 278.972C134.094 280.392 132.894 281.694 126.854 286.943C116.857 295.63 118.001 295.14 116.273 291.487C108.588 275.242 118.929 255.42 136.333 253.033L138.758 252.7ZM301.743 252.708V262.524C301.743 267.922 301.68 272.336 301.604 272.332C301.527 272.328 299.963 270.897 298.127 269.152C286.044 257.665 286.808 258.516 287.783 257.634C289.467 256.108 295.884 253.463 298.822 253.085L301.743 252.708ZM142.373 252.744L145.07 253.103C149.226 253.656 157.114 257.266 157.114 258.615C157.114 258.881 155.049 261.028 152.525 263.388C150.001 265.748 146.758 268.749 145.319 270.057L142.702 272.435L142.538 262.589L142.373 252.744ZM305.08 252.852H306.766C307.694 252.852 309.966 253.362 311.816 253.986C326.706 259.007 334.09 274.787 328.496 289.633C326.279 295.518 326.866 295.617 318.013 287.853C311.97 282.553 310.155 280.649 310.123 279.577C310.067 277.654 308.146 274.672 306.472 273.909L305.08 273.275V263.063V252.852ZM165.18 269.071L165.871 270.386C168.2 274.812 167.727 285.109 164.916 291.131C164.023 293.045 163.167 294.611 163.014 294.611C162.342 294.611 147.198 280.913 147.317 280.413C147.389 280.106 151.439 277.43 156.315 274.464L165.18 269.071ZM279.299 269.232C281.551 270.098 296.706 279.957 296.593 280.483C296.519 280.828 293.161 283.996 289.131 287.523C285.101 291.049 281.591 294.066 281.33 294.228C280.663 294.641 278.67 290.992 277.607 287.408C275.842 281.458 277.06 268.372 279.299 269.232ZM220.145 274.509L216.655 284.143C214.736 289.441 212.992 294.101 212.778 294.499C212.55 294.921 211.17 291.903 209.468 287.26C207.863 282.881 206.156 278.234 205.675 276.933C204.926 274.903 204.574 274.566 203.208 274.566C201.174 274.566 201.128 274.233 204.41 283.284C209.339 296.877 210.701 300.442 211.238 301.153C212.003 302.165 213.672 302.004 214.124 300.874C214.338 300.338 216.138 295.39 218.124 289.878C220.11 284.366 221.807 279.783 221.896 279.694C221.985 279.605 222.988 282.11 224.127 285.262C230.377 302.561 230.062 301.849 231.479 301.849C232.239 301.849 232.944 301.435 233.138 300.874C233.323 300.338 234.037 298.397 234.725 296.559C237.966 287.908 242.222 275.787 242.222 275.209C242.222 274.856 241.507 274.566 240.632 274.566C239.073 274.566 238.97 274.766 235.533 284.449C233.604 289.885 231.869 294.519 231.676 294.747C231.484 294.974 229.677 290.59 227.661 285.003L223.995 274.845L222.07 274.677L220.145 274.509ZM303.511 275.123C307.17 275.123 309.252 280.1 306.727 282.813C305.144 284.514 301.799 284.479 300.171 282.743C297.442 279.835 299.508 275.123 303.511 275.123ZM140.091 275.183C141.155 275.099 142.313 275.413 143.411 276.277C145.281 277.749 145.465 281.215 143.764 282.918C142.063 284.621 138.6 284.436 137.129 282.565C134.538 279.268 136.897 275.435 140.091 275.183ZM145.364 284.006L150.266 288.33C152.962 290.709 156.419 293.856 157.949 295.324L160.73 297.993L158.505 299.948C155.607 302.493 150.918 304.891 146.699 305.985C138.516 308.108 129.216 305.795 122.928 300.073L120.171 297.563L122.094 295.881C123.151 294.955 126.625 291.94 129.813 289.181L135.61 284.164L137.322 285.209C139.553 286.571 142.144 286.541 143.934 285.132L145.364 284.006ZM308.459 284.022L315.948 290.771C320.067 294.483 323.437 297.602 323.437 297.701C323.437 297.799 322.498 298.77 321.351 299.857C318.527 302.532 313.786 304.986 309.478 306.002C303.217 307.479 297.58 306.785 291.384 303.776C288.445 302.349 283.213 298.125 283.501 297.411C283.591 297.189 286.991 294.098 291.057 290.542L298.451 284.076L300.236 285.164C302.507 286.551 304.328 286.544 306.631 285.138L308.459 284.022ZM262.245 320.258L257.936 321.991C235.378 331.067 210.771 331.286 187.723 322.615L181.897 320.424L177.988 323.719C175.839 325.532 171.738 328.399 168.874 330.091C165.043 332.354 163.867 333.301 164.424 333.677C173.615 339.894 195.099 346.602 211.072 348.24C225.97 349.769 245.692 347.333 260.857 342.092C266.638 340.094 279.648 334.127 280.21 333.216C280.387 332.929 278.52 331.584 276.059 330.227C273.598 328.869 269.483 326.07 266.914 324.007L262.245 320.258Z" fill="#C1C1C1"/>
<path d="M222.336 214.434L146.679 275.177C147.467 276.331 147.908 277.69 147.949 279.091L147.954 279.304C147.948 279.545 147.931 279.787 147.902 280.027C148.441 279.461 151.757 277.237 156.316 274.464L165.181 269.072L165.35 269.391L175.107 263.428C175.106 263.385 174.999 263.18 175.014 263.167C175.223 262.98 178.732 260.831 194.385 251.299C217.798 237.043 222.079 234.478 222.469 234.478L222.336 214.434Z" fill="white"/>
<path d="M236.915 211.806L222.336 214.434L297.477 275.134C298.491 273.756 299.95 272.77 301.607 272.344L301.602 272.331C301.526 272.327 299.962 270.897 298.126 269.152C296.725 267.82 296.867 267.916 295.792 266.894L253.689 227.502C253.595 227.414 253.583 227.406 253.488 227.317L236.915 211.806Z" fill="white"/>
<path d="M215.8 22.6234L215.637 26.6601C215.482 30.4956 215.535 30.6968 216.696 30.6968C217.903 30.6968 217.913 30.7715 217.557 36.9606C217.359 40.4056 217.194 45.1661 217.193 47.5394C217.191 51.7097 217.147 51.8545 215.87 51.8545C214.393 51.8545 213.853 53.4254 213.853 57.7257V60.117L217.33 60.4487C219.242 60.6309 222.309 60.8543 224.144 60.9446C225.98 61.0349 229.994 61.1564 233.065 61.2143L238.648 61.3186L241.218 58.6739L243.786 56.0292L244.174 49.2771C244.454 44.4114 244.384 42.4149 243.922 42.1293C243.446 41.8347 243.462 41.5143 243.986 40.8819C244.412 40.3688 244.77 37.9041 244.889 34.6682L245.085 29.3037L242.566 26.4589L240.048 23.6141L230.149 23.1672C224.705 22.9215 219.249 22.698 218.025 22.6713L215.8 22.6234ZM199.985 24.1992L192.067 25.3595L184.148 26.5209L181.766 29.5941L179.385 32.6683L181.287 45.9572C182.334 53.2661 183.393 59.4303 183.641 59.6559C183.89 59.8816 185.318 60.9876 186.814 62.1125C188.842 63.6373 189.904 64.0846 190.986 63.872C191.784 63.7153 195.316 63.178 198.834 62.678C206.378 61.6061 205.422 62.0584 207.963 58.3662L210.017 55.38L208.319 43.6104C207.385 37.1367 206.622 31.2317 206.622 30.488C206.622 29.4832 205.77 28.5008 203.304 26.6666L199.985 24.1992ZM261.011 26.7939C259.679 26.8128 259.026 27.4031 257.168 28.5925L254.076 30.5728L250.881 43.6082L247.686 56.6448L249.669 59.9398L251.653 63.2359L258.758 65.0215C268.095 67.3684 267.614 67.4261 273.835 63.2108C274.098 63.0328 280.057 38.9919 280.173 37.6413C280.227 37.0208 279.407 35.0995 278.352 33.3719L276.433 30.2313L268.923 28.4261C264.353 27.3277 262.342 26.775 261.011 26.7939ZM226.091 31.3177L230.124 31.6374C235.62 32.073 237.702 33.9677 234.867 35.9546C234.105 36.4891 232.559 36.7959 230.835 36.7561C226.331 36.6522 226.091 36.5002 226.091 33.7504V31.3177ZM163.665 31.545L153.084 35.1575C139.693 39.729 140.532 39.0792 142.065 43.6887C143.179 47.0383 143.421 47.3681 144.562 47.0816C145.959 46.7307 145.726 46.2274 150.413 59.7342C152.98 67.1294 152.93 66.8876 151.863 66.8876C150.393 66.8876 150.341 68.0061 151.642 71.6376C152.352 73.6184 153.031 75.2393 153.151 75.2393C153.271 75.2393 156.089 74.2997 159.411 73.1514C166.198 70.8057 166.118 70.9201 164.306 66.072C163.282 63.3327 163.01 63.0242 161.869 63.3109C160.708 63.6027 160.471 63.2983 159.406 60.1431C158.256 56.7355 158.397 55.7917 160.059 55.7595C160.95 55.7427 166.051 60.979 165.794 61.6482C165.42 62.6249 167.788 69.6715 168.491 69.6715C170.192 69.6715 181.078 65.5787 180.864 65.0193C180.73 64.6687 180.167 62.9414 179.613 61.1805C178.581 57.9016 178.08 57.5551 175.749 58.5152C174.854 58.884 174.066 58.4178 171.716 56.1293C168.484 52.9808 168.329 52.6629 169.835 52.2688C171.744 51.769 174.019 45.8513 173.33 43.1776C171.558 36.3074 170.676 34.8999 167.062 33.1708L163.665 31.545ZM195.429 33.5068C197.981 33.7202 198.756 35.7637 199.617 41.5953C200.11 44.9406 200.663 48.5739 200.844 49.6687C201.134 51.4171 200.958 51.8402 199.405 53.1485C198.093 54.2534 197.037 54.6325 195.315 54.6199C191.315 54.5894 190.918 53.9248 189.583 45.0121C188.235 36.0103 188.577 34.5593 192.216 33.8308C193.531 33.5676 194.579 33.4356 195.429 33.5068ZM292.043 35.1554C291.445 35.1596 286.936 44.4605 287.34 44.8555C287.691 45.1992 294.055 47.957 294.496 47.957C294.717 47.957 295.125 47.4458 295.403 46.8217C295.837 45.8488 296.05 45.7902 296.896 46.4095C297.82 47.0858 297.729 47.4503 295.469 52.1372C294.141 54.8905 292.207 59.0941 291.171 61.4785C289.39 65.5763 289.205 65.7966 287.801 65.488C286.41 65.1821 286.217 65.3969 284.727 68.9059C283.852 70.9654 283.38 72.7328 283.678 72.8338C283.977 72.9348 286.599 74.1425 289.505 75.5177C292.412 76.8929 294.993 78.0186 295.242 78.0199C295.49 78.0213 296.41 76.4572 297.287 74.5433C298.864 71.1016 298.869 71.0537 297.779 70.2032C296.702 69.3623 296.772 69.1383 300.989 60.0224C304.14 53.2093 305.533 50.7496 306.164 50.8801C306.717 50.9946 306.977 51.5593 306.886 52.4526C306.765 53.6405 307.199 54.07 309.818 55.3561C311.509 56.1862 313.223 56.8655 313.626 56.8655C314.309 56.8655 318.85 47.5971 318.37 47.1838C317.781 46.6769 292.554 35.1512 292.043 35.1554ZM263.75 36.0808C264.525 36.0015 265.466 36.1782 266.672 36.4799C271.102 37.5879 271.395 38.9417 269.153 47.957C267.786 53.4487 266.962 55.736 266.094 56.4479C264.114 58.0717 259.87 57.3428 258.192 55.0918L257.08 53.5977L258.581 47.2969C260.591 38.8663 261.424 36.319 263.75 36.0808ZM160.346 41.8161C161.308 41.757 162.174 41.8502 162.76 42.1532C165.231 43.4323 163.758 45.8719 159.764 47.1131C158.154 47.6136 156.525 48.154 156.144 48.3137C155.503 48.583 155.032 47.7776 154.128 44.8686C153.714 43.537 157.46 41.9934 160.346 41.8161ZM225.535 45.1731H229.332C235.087 45.1731 237.453 48.2968 234.288 51.7153C233.381 52.6958 232.575 52.9495 230.583 52.8843C225.656 52.7229 224.836 52.4539 225.195 51.1161C225.373 50.4503 225.522 48.8409 225.526 47.5394L225.535 45.1731ZM116.041 52.6929C115.632 52.8453 113.504 54.2487 111.313 55.8107C109.122 57.3727 105.452 59.9507 103.157 61.5405L98.9851 64.431L98.2181 68.3034L97.451 72.177L100.415 76.4997C103.507 81.0103 103.899 81.2627 109.276 82.1871C111 82.4835 111.726 82.1629 115.619 79.3847C121.416 75.2478 124.851 75.5753 124.851 80.2656C124.851 82.1559 124.566 82.5785 122.069 84.374C119.106 86.5046 118.22 86.7528 117.207 85.7387C116.604 85.1355 115.942 85.4676 110.186 89.26C109.835 89.4912 110.798 91.3958 112.641 94.1144C114.308 96.5746 115.798 98.5894 115.951 98.5915C116.75 98.6041 122.327 94.1864 122.2 93.6414C122.119 93.29 122.404 93.0772 122.835 93.1683C123.265 93.2594 125.209 92.2743 127.155 90.9792C133.526 86.7377 133.74 86.4871 134.437 82.4035L135.067 78.7116L131.211 73.2373L127.355 67.763L123.582 67.0126L119.81 66.2623L115.344 69.3952C111.575 72.0387 110.62 72.4725 109.241 72.1694C106.516 71.5703 107.218 68.9617 110.801 66.3678C113.278 64.5747 114.762 64.2488 115.786 65.2738C116.233 65.7215 117.253 65.257 119.548 63.5599L122.697 61.2317L121.743 59.744C118.406 54.5413 116.71 52.4441 116.041 52.6929ZM343.287 63.1521C341.671 63.7725 338.243 68.5661 338.926 69.2495C340.019 70.3436 339.774 70.8936 332.264 84.2337L324.961 97.2093L328.509 100.396L332.057 103.582L333.775 102.567C334.719 102.009 336.134 101.133 336.918 100.619L338.343 99.6833L336.592 103.096L334.84 106.507L338.178 109.525C340.014 111.184 341.704 112.542 341.933 112.543C342.162 112.543 347.873 109.003 354.624 104.676C365.487 97.7121 367.045 96.8749 368.179 97.392C369.313 97.909 369.765 97.6668 372.101 95.2921C373.554 93.8159 374.65 92.3856 374.538 92.1135C374.426 91.8414 372.244 89.6289 369.688 87.197L365.042 82.7754L362.366 85.8279C360.484 87.9751 359.853 89.0764 360.238 89.5416C360.731 90.1363 355.465 94.1384 351.149 96.4503C349.865 97.138 349.855 97.1612 353.905 90.0919L356.401 85.7355L354.269 83.5497C351.788 81.0059 351.081 80.8998 348.459 82.6775C341.724 87.2453 339.851 88.2683 340.745 86.8926C341.229 86.1486 342.69 83.5895 343.994 81.2062C345.916 77.6924 346.51 76.9933 347.135 77.5121C347.749 78.0221 348.441 77.5557 350.551 75.2067C352.006 73.5863 353.196 72.1161 353.196 71.9399C353.194 71.0515 343.984 62.8844 343.287 63.1521ZM82.6677 78.0232L77.0595 83.9836L71.4501 89.9451V93.5826V97.2202L81.0402 106.83L90.6292 116.441H94.5643H98.4995L104.165 110.621L109.832 104.801V101.022V97.243L100.243 87.6331L90.6531 78.0232H86.6604H82.6677ZM86.5887 87.8995C88.3833 87.8221 90.447 89.5053 94.4068 93.4837C100.731 99.8374 101.247 101.405 98.0844 104.642C94.894 107.908 93.2312 107.365 86.8755 100.98C80.5037 94.5778 80.0036 93.0192 83.2968 89.8244C84.5315 88.6265 85.5119 87.946 86.5887 87.8995ZM60.9365 102.014L58.1302 106.304C56.5868 108.664 55.3233 110.846 55.3217 111.154C55.3202 111.462 56.8281 114.314 58.6734 117.493C60.5188 120.671 61.8967 123.404 61.7351 123.566C61.5734 123.728 58.7496 123.57 55.4597 123.213C52.1698 122.856 49.0644 122.564 48.5596 122.565C48.0194 122.565 46.4839 124.392 44.8256 127.007L42.0083 131.448L43.7956 132.779C48.2011 136.06 48.6962 136.258 49.5527 135.086C50.4763 133.821 50.0366 133.603 61.0191 140.777C67.5128 145.02 68.0546 145.501 67.4378 146.49C66.6522 147.749 66.4471 147.5 70.3376 150.03C72.0203 151.124 73.4668 152.032 73.5524 152.047C73.7361 152.08 80.9065 141.071 80.9065 140.756C80.9065 140.389 74.8372 136.485 74.2673 136.485C73.9718 136.485 73.4973 136.902 73.2123 137.412C72.76 138.221 72.0516 137.925 67.6323 135.081C64.8484 133.29 62.629 131.766 62.6998 131.695C62.8319 131.563 70.8554 132.352 74.0924 132.815C76.5349 133.165 76.4381 132.703 72.7897 126.584C71.0792 123.715 69.765 121.283 69.8693 121.181C69.9736 121.079 72.2378 122.418 74.9007 124.156C78.7159 126.645 79.6318 127.491 79.2204 128.142C78.9333 128.597 78.6944 129.159 78.6902 129.393C78.6796 129.869 84.4974 133.709 85.1904 133.685C85.6887 133.668 92.8304 122.602 92.5131 122.34C92.4014 122.247 90.8242 121.231 89.0082 120.082C85.9564 118.151 85.6535 118.065 85.0025 118.956C84.0886 120.207 84.1475 120.236 74.591 113.998C67.0397 109.068 66.4743 108.582 67.1075 107.567C67.4842 106.963 67.6771 106.369 67.5356 106.247C67.3941 106.125 65.8518 105.122 64.1078 104.019L60.9365 102.014ZM377.568 105.185L366.402 112.511L355.235 119.838L354.551 123.671L353.866 127.503L358.24 134.209L362.614 140.916L365.972 141.713C367.818 142.152 369.499 142.533 369.707 142.56C369.915 142.587 372.293 141.147 374.991 139.361C377.69 137.574 382.792 134.225 386.331 131.918L392.763 127.724L393.491 123.862L394.219 119.999L389.893 113.441C385.356 106.564 384.854 106.153 380.285 105.546L377.568 105.185ZM378.903 115.36C380.547 115.143 381.535 116.039 382.845 117.919C385.43 121.625 384.697 122.863 376.781 128.172C373.159 130.6 370.001 132.553 369.762 132.512C369.524 132.47 368.765 132.327 368.077 132.194C367.389 132.061 366.115 130.906 365.246 129.626C362.617 125.752 363.332 124.494 371.011 119.483C374.955 116.909 377.258 115.578 378.903 115.36ZM402.383 134.042C402.131 133.761 400.378 134.211 398.331 135.081C395.234 136.399 394.739 136.805 394.821 137.96C394.909 139.195 394.147 139.625 385.474 143.229C380.282 145.386 375.961 146.944 375.87 146.69C375.166 144.692 374.752 144.652 371.051 146.227C369.033 147.085 367.382 147.829 367.382 147.879C367.382 148.173 372.291 159.957 372.501 160.168C372.721 160.388 379.562 157.85 380.081 157.356C380.183 157.26 380.002 156.688 379.68 156.086C378.8 154.439 385.567 151.441 386.691 152.979C387.294 153.804 387.213 154.175 386.165 155.381C382.798 159.257 381.626 160.357 381.169 160.075C380.693 159.78 374.809 161.86 373.904 162.643C373.666 162.848 374.632 165.801 376.048 169.206L378.625 175.397L381.429 174.291C386.28 172.377 386.273 172.384 385.609 170.221C385.05 168.397 385.148 168.161 387.723 165.143C390.207 162.234 390.467 162.07 390.934 163.118C391.225 163.772 392.947 164.899 394.968 165.759L398.493 167.258L403.102 165.405C408.638 163.179 408.614 163.201 410.239 159.174L411.532 155.973L410.347 153.049C404.295 138.117 402.767 134.469 402.383 134.042ZM37.4844 142.462C36.8116 143.207 34.685 149.424 34.9964 149.736C35.1608 149.901 34.9405 150.432 34.5064 150.916C34.0723 151.4 32.8338 154.15 31.7545 157.026L29.7923 162.257L31.3535 165.705L32.9158 169.154L38.0255 171.146L43.135 173.138L46.6703 171.533C49.9195 170.058 50.2849 169.714 51.1769 167.266C54.0143 159.48 55.3697 157.971 58.53 159.084C61.9806 160.298 61.0222 168.279 57.311 169.236C55.8264 169.619 55.4247 170.159 54.3157 173.256C53.6112 175.223 53.2356 176.909 53.4813 177.004C53.7269 177.099 55.68 177.892 57.8217 178.766C63.2866 180.996 63.3247 180.987 64.7 177.212C65.3529 175.42 65.8875 173.687 65.8875 173.36C65.8875 173.034 66.2614 172.056 66.7186 171.189C67.1758 170.323 68.333 167.56 69.2891 165.051L71.0275 160.487L69.3652 156.932L67.7029 153.376L61.4265 151.031L55.1501 148.686L51.6408 150.216L48.1316 151.747L46.3009 156.686C44.8424 160.623 44.1458 161.798 42.8678 162.471C41.5373 163.172 41.1818 163.188 40.7774 162.567C39.0535 159.919 40.7427 154.357 43.5316 153.501C44.9354 153.07 45.4344 152.428 46.3824 149.825C47.0143 148.091 47.5308 146.442 47.5308 146.162C47.5308 145.458 37.9611 141.934 37.4844 142.462ZM397.997 147.242C399.073 147.058 399.37 147.9 400.493 151.204C401.088 152.966 401.334 154.702 401.108 155.601C400.342 158.656 397.244 156.851 395.625 152.407C394.151 148.361 394.075 148.724 396.601 147.716C397.192 147.479 397.638 147.304 397.997 147.242ZM415.532 171.835C414.787 171.878 413.817 171.998 412.8 172.186C409.516 172.791 409.101 173.01 409.101 174.142C409.101 175.633 408.846 175.712 396.876 177.934C392.446 178.756 388.75 179.225 388.662 178.976C387.995 177.085 387.578 176.971 383.852 177.675C379.601 178.478 379.645 178.361 381.008 185.027C382.534 192.49 382.016 191.783 385.626 191.333C389.612 190.835 390.726 190.261 390.367 188.887C390.133 187.992 390.541 187.725 392.947 187.209C397.059 186.326 397.976 186.412 397.976 187.677C397.976 188.873 391.57 194.163 391.081 193.37C390.772 192.871 383.854 193.849 383.232 194.481C382.896 194.822 384.984 206.396 385.552 207.336C385.865 207.855 385.859 207.855 389.912 207L393.249 206.296L393.117 204.102C392.988 201.951 393.077 201.838 397.643 198.463L402.3 195.02L407.715 196.59C413.3 198.21 414.078 198.752 414.099 200.993C414.106 202.07 414.332 202.252 415.36 202.007C416.048 201.843 417.803 201.536 419.26 201.325C420.717 201.115 422.045 200.723 422.211 200.455C422.452 200.065 420.348 187.828 419.946 187.282C419.675 186.913 412.252 188.782 411.933 189.299C411.694 189.685 410.226 189.487 407.557 188.707C404.133 187.708 403.539 187.352 403.539 186.301C403.539 185.28 403.946 185.003 405.903 184.691C407.203 184.485 408.82 184.177 409.495 184.009C410.46 183.768 410.796 183.996 411.066 185.072L411.409 186.442L415.043 185.68C419.003 184.849 419.824 184.51 419.43 183.873C419.288 183.643 418.757 180.967 418.248 177.926C417.74 174.886 417.138 172.196 416.911 171.951C416.797 171.828 416.277 171.793 415.532 171.835ZM31.121 177.722L28.18 179.673C24.7073 181.976 24.5967 182.212 23.0976 190.493C21.6361 198.568 21.575 197.855 24.0287 201.379C26.2845 204.618 26.3684 204.655 34.7878 206.08C36.7482 206.411 41.4814 207.272 45.3057 207.994C49.13 208.715 52.3841 209.324 52.5371 209.346C52.6902 209.369 54.192 208.392 55.8747 207.176L58.9342 204.964L60.4237 197.032L61.9121 189.101L60.2531 186.499C57.7612 182.59 57.7704 182.593 43.9705 180.071L31.121 177.722ZM36.8543 187.553C38.3517 187.637 40.2409 187.91 42.6179 188.333C51.7004 189.951 52.876 190.74 52.3329 194.852C52.0935 196.664 51.5569 197.832 50.5631 198.706C48.8754 200.188 48.6295 200.183 40.0364 198.54C32.651 197.128 31.3992 196.321 31.3992 192.972C31.3992 188.753 32.3619 187.301 36.8543 187.553ZM385.747 210.536L385.726 214.294C385.72 216.361 385.565 221.185 385.382 225.014L385.048 231.975L387.832 234.896L390.616 237.818H397.475H404.335L406.996 235.194L409.657 232.57V227.431C409.657 222.779 409.787 222.142 411.015 220.728L412.372 219.166L413.525 220.303C415.517 222.266 415.293 229.467 413.24 229.467C412.613 229.467 412.439 230.378 412.439 233.643V237.818H417.702H422.965L422.986 226.755L423.008 215.691L420.255 213.113L417.502 210.536H412.439H407.375L404.349 213.4L401.322 216.265V221.577C401.322 227.568 400.372 229.467 397.37 229.467C393.791 229.467 391.849 221.689 394.925 219.672C396.201 218.835 396.316 218.419 396.316 214.648V210.536H391.032H385.747ZM25.7953 213.27L23.0346 216.019L20.2739 218.767V227.021V235.275L22.8955 237.938L25.516 240.602H39.2292H52.9414L55.5205 237.842L58.0998 235.081V227.016V218.949L55.2207 216.112L52.3405 213.274L48.4065 213.436L44.4713 213.598L44.3084 217.635C44.1489 221.574 44.1774 221.672 45.4839 221.672C49.1968 221.672 51.2944 228.034 48.5467 230.962C47.3902 232.194 46.9835 232.251 39.2651 232.251C29.4807 232.251 28.6179 231.821 28.6179 226.95C28.6179 223.763 29.5238 222.485 32.3129 221.738C33.8675 221.322 33.9024 221.228 33.9024 217.456V213.598L29.8488 213.434L25.7953 213.27Z" fill="white"/>
<path d="M394.327 278.81C391.76 279.017 389.243 280.11 387.336 282.172C382.501 287.401 384.021 296.438 390.255 299.527C399.891 304.301 409.552 294.622 404.973 284.78C403.021 280.584 398.606 278.466 394.327 278.81ZM46.3414 283.49C45.2038 283.644 44.046 283.986 42.8953 284.543C34.987 288.375 34.9314 300.111 42.8019 304.264C48.0424 307.03 55.5294 304.363 57.8003 298.923C61.2745 290.6 54.3051 282.418 46.3414 283.49ZM98.7812 333.617L95.0167 337.52L91.252 341.423L94.1454 344.32C96.7532 346.93 97.1516 347.146 98.1739 346.507C99.3294 345.784 100.375 346.02 100.375 347.003C100.375 347.302 97.3085 350.892 93.5607 354.979C87.2515 361.861 86.6744 362.348 85.7731 361.554C84.6496 360.564 83.7705 361.153 80.8254 364.87L79.199 366.923L83.8077 371.396C86.3421 373.856 88.5497 375.877 88.7141 375.886C88.8785 375.894 90.2507 374.645 91.7627 373.108C94.2451 370.586 94.4425 370.204 93.7966 369.168C92.9981 367.889 93.63 367.042 102.486 357.533C106.409 353.321 106.991 352.888 107.818 353.575C108.648 354.264 108.657 354.446 107.91 355.273C107.151 356.112 107.322 356.446 109.723 358.813C111.18 360.25 112.649 361.426 112.986 361.426C113.324 361.426 115.146 359.734 117.036 357.667L120.471 353.909L116.395 350.012C114.153 347.868 109.272 343.302 105.55 339.866L98.7812 333.617ZM338.499 339.154L331.826 345.418C325.464 351.39 325.152 351.786 325.129 353.93C325.108 355.9 325.443 356.512 327.839 358.873L330.573 361.568L333.401 359.13C335.935 356.945 336.195 356.514 335.905 354.971C335.619 353.441 335.88 352.987 338.24 350.908C341.506 348.03 343.644 347.902 343.901 350.568C344.038 351.99 343.479 352.816 340.146 356.121L336.23 360.003V363.929V367.855L342.395 374.384C345.785 377.975 348.772 380.913 349.031 380.913C349.45 380.913 353.326 377.341 365.093 366.111L368.645 362.72L364.861 358.705L361.075 354.689L358.121 357.609C355.487 360.213 355.255 360.625 355.977 361.424C356.699 362.223 356.4 362.701 353.19 365.885L349.595 369.452L347.641 367.557C344.522 364.531 344.861 363.135 349.861 358.41L354.034 354.466L354.033 350.909L354.031 347.353L350.365 343.253L346.7 339.154H342.599H338.499ZM123.576 356.415C123.404 356.415 122.328 357.954 121.186 359.836C119.303 362.939 119.195 363.321 120.033 363.934C120.541 364.306 120.946 364.833 120.934 365.106C120.891 366.021 110.504 382.306 110.026 382.207C109.766 382.153 109.178 381.967 108.719 381.794C107.933 381.497 104.028 387.103 104.159 388.339C104.186 388.596 109.166 391.891 115.225 395.662C121.284 399.434 126.367 402.544 126.52 402.573C126.894 402.645 132.082 394.093 132.082 393.405C132.082 392.879 126.474 389.265 125.659 389.265C125.435 389.265 124.945 389.683 124.571 390.195C123.951 391.043 123.629 390.964 120.895 389.293C119.246 388.285 117.8 387.373 117.681 387.265C117.365 386.978 121.116 380.913 121.611 380.913C121.841 380.913 123.93 382.068 126.253 383.479C128.576 384.891 130.557 385.956 130.655 385.846C131.105 385.343 134.863 379.268 134.863 379.044C134.863 378.905 132.861 377.617 130.413 376.18C125.361 373.216 125.592 373.572 127.121 371.095C128.529 368.816 128.157 368.809 131.848 371.173C134.542 372.897 134.828 373.256 134.304 374.237C133.776 375.224 134.097 375.592 137.186 377.547C139.098 378.757 140.702 379.697 140.75 379.634C140.798 379.572 142.116 377.466 143.679 374.954L146.52 370.385L141.666 367.382C127.927 358.879 123.862 356.415 123.576 356.415ZM317.933 357.842C317.373 357.496 311.199 361.335 311.199 362.03C311.199 362.316 312.606 364.739 314.326 367.415C318.767 374.325 318.986 374.693 318.986 375.242C318.986 375.731 313.703 379.243 312.967 379.243C312.757 379.243 310.722 376.257 308.446 372.607L304.307 365.971L302.183 367.178C301.015 367.842 299.441 368.887 298.687 369.499L297.315 370.613L303.479 380.356C306.869 385.715 309.835 390.305 310.07 390.556C310.304 390.806 312.989 389.398 316.035 387.426C324.328 382.057 323.696 382.251 325.155 384.614C326.307 386.479 326.332 386.69 325.477 387.316C324.235 388.225 324.247 388.269 326.59 391.802C327.993 393.917 328.893 394.779 329.469 394.557C330.616 394.117 340.124 388.063 340.124 387.773C340.124 387.555 336.331 381.452 335.898 380.973C335.789 380.853 335.29 381.096 334.787 381.513C333.991 382.175 333.704 382.059 332.552 380.618C330.992 378.667 330.891 377.813 332.141 377.113C332.952 376.659 332.819 376.204 330.988 373.188C328.729 369.465 328.819 369.536 327.349 370.323C326.46 370.799 325.814 370.046 322.351 364.493C320.163 360.986 318.176 357.992 317.933 357.842ZM291.838 372.956C291.436 372.932 290.938 373.11 290.29 373.381C289.213 373.832 283.852 375.982 278.376 378.161L268.42 382.121L269.448 384.718C272.825 393.244 272.082 392.721 277.507 390.394C279.747 389.432 280.034 389.123 279.746 387.975C279.451 386.801 279.735 386.536 282.374 385.523C285.838 384.193 286.163 384.289 286.18 386.653C286.186 387.63 286.681 391.687 287.279 395.668C288.736 405.366 288.72 405.87 286.945 406.546C285.871 406.954 285.598 407.348 285.886 408.064C286.1 408.595 286.79 410.358 287.421 411.98C288.051 413.602 288.84 414.81 289.174 414.666C292.73 413.131 301.259 409.866 301.714 409.866C302.562 409.866 302.402 408.888 300.94 405.133C300.225 403.296 299.361 401.855 299.022 401.932C298.682 402.008 298.102 402.133 297.732 402.21C297.271 402.305 296.765 400.152 296.128 395.389C295.617 391.561 294.779 385.317 294.267 381.514C293.378 374.908 293.043 373.027 291.838 372.956ZM155.789 375.199C154.271 375.216 154.176 376.424 153.288 378.846C151.86 382.742 151.862 382.388 153.276 382.758C154.661 383.121 155.118 382.228 148.046 392.978C142.946 400.73 142.386 401.386 141.24 400.95C140.098 400.515 139.893 400.746 138.851 403.639C138.224 405.379 137.634 407.144 137.539 407.561C137.382 408.248 147.773 412.65 149.55 412.65C150.538 412.65 152.89 405.339 152.067 404.83C150.743 404.011 151.987 402.477 153.642 402.887C158.694 404.141 161.203 406.461 158.326 407.218C157.525 407.428 154.542 414.159 155.031 414.649C155.119 414.737 157.939 415.791 161.297 416.992C168.144 419.44 167.634 419.592 169.341 414.627C170.376 411.615 170.375 411.613 169.188 410.825L168.001 410.035L168.998 399.511C169.546 393.722 170.209 387.107 170.472 384.81C171.026 379.979 171.183 380.243 166.847 378.701C160.255 376.358 157.31 375.184 155.789 375.199ZM262.193 383.697C260.873 383.697 238.249 388.044 237.936 388.358C237.847 388.447 238.229 390.754 238.783 393.485L239.792 398.452L241.703 398.401C245.973 398.286 247.785 397.648 247.785 396.258C247.785 394.778 248.245 394.525 251.949 393.969L254.586 393.573L254.263 396.848C254.085 398.648 253.782 403.552 253.588 407.745L253.236 415.369L251.623 415.724C250.736 415.919 250.01 416.296 250.01 416.563C250.01 417.12 251.097 422.637 251.392 423.572C251.553 424.084 265.175 421.921 266.044 421.245C266.143 421.168 265.879 419.39 265.457 417.294C264.766 413.861 264.561 413.489 263.388 413.537L262.087 413.59L262.453 406.577C262.654 402.72 262.978 395.995 263.174 391.631L263.53 383.697L262.193 383.697ZM185.02 384.704L184.65 387.959C184.446 389.749 184.159 391.652 184.01 392.188C183.852 392.758 184.044 393.166 184.473 393.17C186.566 393.194 186.621 393.779 185.48 403.77C184.87 409.112 184.371 413.671 184.371 413.901C184.371 414.131 183.763 414.32 183.02 414.32C181.789 414.32 181.637 414.603 181.306 417.521C181.106 419.282 180.901 421.089 180.849 421.536C180.742 422.463 182.767 422.914 189.712 423.513L194.219 423.903L194.574 421.756C195.259 417.604 195.038 415.911 193.771 415.579C192.541 415.258 192.524 413.784 193.651 405.442L193.986 402.968L196.284 409.247C197.548 412.7 198.823 415.567 199.117 415.618C199.412 415.669 200.704 414.083 201.989 412.093C203.273 410.102 204.865 407.722 205.526 406.803L206.728 405.133L206.372 409.309C205.786 416.189 205.579 416.909 204.214 416.865C203.133 416.829 202.954 417.226 202.52 420.608C202.253 422.688 202.163 424.519 202.32 424.676C202.477 424.833 205.199 425.295 208.368 425.702C211.538 426.11 214.432 426.472 214.801 426.506C215.17 426.541 215.594 425.755 215.745 424.76C216.608 419.066 216.634 418.217 215.945 418.209C213.886 418.184 213.766 417.497 214.622 410.649C215.078 407.002 215.617 402.454 215.819 400.54C216.155 397.367 216.302 397.06 217.489 397.06C218.803 397.06 219.216 395.76 219.597 390.414C219.705 388.897 218.731 388.566 212.351 387.95L208.903 387.617L204.889 393.777L200.877 399.936L198.586 393.627C195.675 385.608 196.11 386.133 192.032 385.696C190.113 385.49 187.75 385.183 186.782 385.013L185.02 384.704ZM160.467 390.238C160.733 390.033 160.818 390.309 160.89 390.935C160.979 391.701 160.854 393.227 160.612 394.327C160.2 396.203 160.081 396.296 158.672 395.821L157.169 395.314L158.95 392.429C159.751 391.13 160.2 390.443 160.467 390.238Z" fill="white"/>
<path d="M217.068 138.559L217.051 138.596L206.528 212.892L222.337 214.434L221.979 140.327C220.201 140.252 218.487 139.635 217.068 138.559Z" fill="white"/>
</svg>
