<svg width="115" height="115" viewBox="0 0 115 115" fill="none" xmlns="http://www.w3.org/2000/svg">
<path d="M58.4422 0.0188598C48.1466 -0.245444 37.829 2.26894 28.7549 7.51859C28.0632 7.91876 27.3847 8.3107 27.2474 8.3894C26.9388 8.56633 24.062 10.4805 23.8655 10.6396C23.7868 10.7033 23.0892 11.2361 22.315 11.8235C19.1694 14.2103 14.3324 18.9664 12.3577 21.6145C12.1612 21.8781 11.7431 22.431 11.4286 22.8431C11.1141 23.2551 10.7603 23.738 10.6423 23.9162C10.5244 24.0944 10.2967 24.4083 10.1361 24.6137C9.86436 24.9616 8.74986 26.6624 8.42655 27.2228C8.34793 27.3591 7.9866 27.9744 7.62355 28.59C6.65797 30.2272 4.3524 34.864 4.3524 35.1689C4.3524 35.2113 4.25881 35.4491 4.14438 35.697C3.93746 36.1455 3.67607 36.8505 3.2607 38.0798C3.14103 38.4339 2.99045 38.8524 2.92621 39.0098C1.95947 41.3787 0.724508 47.137 0.256467 51.4583C-0.217301 55.8326 -0.016064 62.5483 0.706536 66.4824C1.10232 68.6371 1.18677 69.0596 1.46374 70.2742C4.4265 83.2668 12.7427 95.863 23.3651 103.447C24.3967 104.184 27.1497 106.008 27.7478 106.351C31.7807 108.663 33.8866 109.674 37.2315 110.905C42.4583 112.828 46.7311 113.749 53.1708 114.339C54.8491 114.492 59.1016 114.495 60.7473 114.344C64.197 114.026 65.2974 113.889 67.1802 113.543C71.2185 112.8 76.2547 111.32 79.0452 110.056C79.4384 109.878 80.1138 109.574 80.5463 109.381C89.8428 105.229 98.2483 98.1255 104.304 89.3047C105.201 87.9975 107.261 84.5475 107.562 83.8476C107.641 83.6617 107.77 83.4132 107.848 83.2951C108.046 82.9949 109.478 79.8958 109.699 79.2887C109.8 79.0133 109.967 78.5947 110.07 78.3586C111.203 75.7765 112.224 72.2447 113.192 67.5556C114.426 61.5757 114.372 52.8762 113.058 46.2358C112.367 42.7448 110.984 38.0739 109.978 35.8341C109.83 35.504 109.709 35.1966 109.709 35.1514C109.709 34.9235 106.961 29.3227 106.669 28.9565C106.59 28.8572 106.422 28.5886 106.295 28.3598C105.726 27.3367 105.47 26.9216 104.579 25.5691C100.026 18.6579 93.5045 12.4045 86.4788 8.21373C84.6095 7.0987 83.7166 6.61545 81.8298 5.69882C74.4444 2.11097 66.4499 0.224433 58.4422 0.0188598ZM58.0929 1.27142C66.1076 1.42147 74.1093 3.28687 81.4754 6.89398C97.79 14.8831 109.174 30.2111 112.13 48.1673C112.811 52.3091 113.022 58.9855 112.595 62.9052C109.698 89.4942 89.5125 109.807 62.8916 112.922C61.1414 113.127 54.5342 113.21 52.599 113.051C41.1805 112.114 29.4865 107.332 21.2923 100.25C14.6829 94.5371 9.87574 88.2767 6.46038 80.9341C-5.65903 54.8786 3.8127 23.9371 28.4369 9.14339C37.4619 3.72131 47.7882 1.07849 58.0929 1.27142ZM57.1031 21.0637C56.7887 21.0633 56.4739 21.1205 56.2443 21.235C55.8566 21.4284 55.2735 22.8848 55.2539 23.7091C55.2443 24.1159 55.1834 24.1669 54.4216 24.4036C53.9695 24.5441 53.1172 24.9102 52.5275 25.2174C51.6778 25.6601 51.4257 25.7372 51.3124 25.5894C51.0802 25.2864 49.2919 24.3435 48.9495 24.3435C48.4493 24.3435 47.5241 25.3615 47.5241 25.9121C47.5241 26.392 48.396 28.0443 48.7591 28.2524C48.9274 28.3489 48.89 28.5001 48.5469 29.1109C48.1137 29.8821 47.5241 31.4733 47.5241 31.8712C47.5241 32.0246 47.4469 32.0709 47.2907 32.0109C46.8295 31.8337 44.6679 32.6167 44.5163 33.0159C44.1771 33.9088 44.4304 34.9477 45.0462 35.189C45.7058 35.4474 46.7107 35.6838 47.1126 35.6753C47.4522 35.6681 47.5096 35.75 47.7274 36.5517C47.8595 37.038 48.211 37.8975 48.5083 38.4618C49.0234 39.4392 49.0367 39.4982 48.7917 39.7082C48.4218 40.0253 47.6671 41.5814 47.6671 42.0272C47.6671 42.5331 48.6405 43.517 49.141 43.517C49.5639 43.517 51.1955 42.5843 51.4299 42.2086C51.5805 41.9673 51.6245 41.9732 52.2039 42.3131C52.5418 42.5113 53.2193 42.824 53.7094 43.0081C54.7965 43.4167 54.7712 43.3074 54.4026 46.0012C53.1362 55.2586 53.2551 54.5763 52.8394 54.9572C52.4525 55.3117 46.5705 60.8115 45.381 61.931C44.9717 62.3162 44.6893 62.4856 44.602 62.3983C44.2365 62.0325 42.2535 62.7916 41.7407 63.4935C41.6147 63.666 41.4424 63.6194 40.6619 63.2014C40.1511 62.9279 39.3312 62.5949 38.8398 62.4614C38.0195 62.2387 37.9463 62.1867 37.9463 61.8259C37.9463 61.0687 37.382 59.5542 37.0088 59.3093C36.5127 58.984 35.2669 59.1081 34.937 59.5159C34.6344 59.89 34.1907 61.6273 34.3055 61.9891C34.3635 62.1723 34.3232 62.2613 34.1815 62.2613C33.7484 62.2613 31.9296 62.9599 31.2116 63.4021C30.5588 63.8042 30.4512 63.8323 30.3385 63.6307C30.182 63.3508 28.3418 62.4044 27.9541 62.4044C27.3245 62.4044 26.2689 63.6918 26.466 64.2195C26.6114 64.6091 27.3791 65.87 27.6713 66.1993C27.9195 66.479 27.9161 66.5097 27.5632 67.1293C27.3625 67.4818 27.0252 68.2853 26.8136 68.9148C26.4938 69.8663 26.3812 70.0529 26.1477 70.021C25.5808 69.9434 23.7331 70.6421 23.546 71.0047C23.2814 71.5178 23.3223 72.4788 23.6248 72.8528C23.908 73.2028 25.315 73.7027 26.0268 73.706C26.4468 73.7081 26.4857 73.7556 26.7036 74.531C26.8307 74.9835 27.1859 75.8535 27.4929 76.4643C27.9147 77.3037 28.0064 77.6007 27.8678 77.6805C27.5782 77.8474 26.6526 79.6333 26.6575 80.0157C26.6646 80.5548 27.697 81.578 28.2339 81.578C28.544 81.578 30.3858 80.4924 30.5479 80.2142C30.6292 80.0747 30.8478 80.1355 31.4621 80.4685C31.906 80.7092 32.7265 81.0523 33.2853 81.2309C34.0646 81.48 34.2905 81.6115 34.2558 81.7957C34.191 82.1387 34.7855 84.0346 35.0512 84.3324C35.3239 84.6376 36.7548 84.6824 37.1436 84.3978C37.4125 84.201 37.9463 82.4945 37.9463 81.8314C37.9463 81.5503 38.0191 81.4342 38.1965 81.4321C38.6354 81.4267 40.3406 80.7661 41.0611 80.3223C41.6953 79.9318 41.7709 79.9151 41.9085 80.1356C42.2016 80.6055 44.1301 81.4681 44.5392 81.3125C44.9823 81.1438 45.6334 80.397 45.7529 79.9205C45.847 79.5452 44.8203 77.6222 44.4498 77.4799C44.3057 77.4245 44.3962 77.1331 44.8136 76.307C45.1192 75.7023 45.447 74.8703 45.5421 74.458C45.6953 73.7934 45.7566 73.7082 46.0834 73.7065C46.6165 73.7038 48.2564 73.1646 48.5555 72.8936C48.8695 72.6092 48.9048 71.1972 48.6077 70.8051C48.4018 70.5334 46.7104 69.988 46.0736 69.988C45.7338 69.988 45.6758 69.9099 45.5178 69.2368C45.4207 68.8236 45.249 68.3027 45.1358 68.0789C45.0226 67.8552 44.9507 67.6534 44.9761 67.6307C45.0299 67.5826 45.9317 67.0303 49.9543 64.5809C55.9712 60.9171 57.0713 60.2581 57.1715 60.2581C57.284 60.2581 58.5428 61.0162 63.058 63.802C64.6961 64.8128 66.6955 66.0442 67.5009 66.5385C68.3064 67.0329 68.9949 67.4849 69.0307 67.5429C69.0666 67.601 68.9213 68.1916 68.708 68.8556C68.3977 69.8212 68.2701 70.0532 68.0697 70.0145C67.6216 69.9282 65.6755 70.589 65.4566 70.9018C65.1265 71.3735 65.1907 72.4832 65.5719 72.8964C65.8935 73.2449 67.2729 73.7082 67.9882 73.7082C68.3085 73.7082 68.3758 73.8074 68.5951 74.6025C68.7308 75.0944 69.0974 75.9647 69.4099 76.5367C69.8887 77.4132 69.9423 77.5903 69.7511 77.6638C69.4597 77.7757 68.5382 79.6003 68.5382 80.0652C68.5382 80.476 69.4119 81.3976 69.9231 81.526C70.2766 81.6148 72.1363 80.6201 72.358 80.2237C72.4504 80.0583 72.6741 80.1221 73.5555 80.5655C74.1515 80.8653 74.9713 81.1958 75.377 81.2999C76.0086 81.4619 76.1147 81.5387 76.1147 81.8334C76.1147 82.4873 76.7081 84.1526 77.0187 84.3704C77.4639 84.6824 78.5721 84.6436 79.0075 84.3008C79.362 84.0217 79.8315 82.6118 79.8315 81.8261C79.8315 81.5393 79.9433 81.4605 80.582 81.2971C80.9947 81.1914 81.8546 80.8363 82.4929 80.5079C83.5069 79.9861 83.6716 79.939 83.7976 80.1362C83.8769 80.2603 84.4257 80.6082 85.0171 80.9095C86.0629 81.4422 86.1044 81.4511 86.5315 81.23C86.9825 80.9966 87.6939 80.0881 87.6939 79.7455C87.6939 79.4805 86.5592 77.5907 86.3194 77.4564C86.1661 77.3706 86.2439 77.1207 86.684 76.2835C86.9916 75.6983 87.3232 74.8585 87.4211 74.417C87.5774 73.7119 87.6364 73.6213 87.9069 73.673C88.4011 73.7676 90.2442 73.1455 90.4837 72.8033C90.7373 72.4409 90.7616 71.4338 90.5292 70.9234C90.3489 70.5274 89.4769 70.1875 88.2484 70.0347L87.5881 69.9525L87.3462 69.0761C87.2132 68.594 86.8562 67.7376 86.553 67.1729C86.1562 66.4338 86.0535 66.1266 86.1859 66.0758C86.4765 65.9641 87.408 64.1888 87.408 63.7467C87.408 63.1706 86.4929 62.2614 85.9137 62.2619C85.4864 62.2622 83.912 63.0937 83.6122 63.4773C83.4899 63.6337 83.2598 63.5681 82.3842 63.1277C81.7917 62.8296 80.9749 62.5007 80.5691 62.3966C79.9326 62.2333 79.8314 62.1592 79.8314 61.8564C79.8314 61.1757 79.2584 59.5581 78.9374 59.3331C78.4964 59.0238 77.3702 59.0486 76.9657 59.3764C76.6183 59.6579 76.219 60.861 76.1984 61.6884C76.1862 62.1823 76.1735 62.1923 75.1852 62.479C74.6346 62.6388 73.7568 63.0088 73.2344 63.3012C72.478 63.7246 72.2683 63.7905 72.2047 63.6246C72.098 63.3461 70.2117 62.4044 69.7605 62.4044C69.4898 62.4044 68.3702 61.4378 65.1436 58.4178L60.8843 54.4316L60.5543 52.0863C60.1484 49.2018 59.8512 47.0527 59.6757 45.7349C59.6023 45.184 59.5007 44.4388 59.4498 44.0788L59.3571 43.424L60.4097 43.0375C60.9885 42.8249 61.7487 42.4714 62.0989 42.2516L62.7355 41.852L63.0281 42.1714C63.369 42.5438 64.9231 43.3732 65.281 43.3737C65.6235 43.3741 66.4668 42.6012 66.6765 42.0946C66.8366 41.7076 66.802 41.5828 66.2632 40.6059C65.9398 40.0195 65.5786 39.5028 65.4608 39.4575C65.2843 39.3898 65.3328 39.2041 65.7353 38.4056C66.2428 37.3987 66.6798 36.2196 66.6798 35.8569C66.6798 35.7211 66.8254 35.6473 67.0936 35.6473C67.8052 35.6473 69.3688 35.0906 69.605 34.753C69.9079 34.3202 69.8902 33.1833 69.5746 32.7987C69.2957 32.4589 67.3875 31.8582 66.9504 31.9726C66.7537 32.0241 66.6798 31.9678 66.6798 31.7661C66.6798 31.3519 65.8783 29.3552 65.4734 28.7602C65.1305 28.2564 65.1279 28.2326 65.3838 28.0009C65.8029 27.6212 66.5369 26.1335 66.5369 25.6637C66.5369 25.1364 65.5814 24.2004 65.0431 24.2004C64.675 24.2004 62.9958 25.1141 62.7441 25.4513C62.6224 25.6145 62.4548 25.5743 61.7823 25.2202C61.3343 24.9843 60.5161 24.6455 59.9641 24.4676C59.0173 24.1623 58.9596 24.1193 58.9478 23.7072C58.9241 22.8784 58.3454 21.4315 57.9597 21.237C57.7315 21.1218 57.4175 21.0641 57.1031 21.0637ZM56.6731 26.8822V29.5438V32.2054L56.2635 32.4175C55.8482 32.6325 55.3886 33.3971 55.3843 33.88C55.3827 34.0392 54.589 34.8427 53.3908 35.8974C52.2956 36.8615 51.3651 37.6502 51.323 37.6502C51.281 37.6502 51.1239 37.4088 50.9737 37.1137C48.7831 32.8088 51.3642 27.7373 56.1371 26.9685L56.6731 26.8822ZM57.5308 26.8822L58.0669 26.9685C62.8042 27.7315 65.4308 32.7507 63.3012 36.9706C63.1125 37.3444 62.911 37.647 62.8533 37.6432C62.4945 37.6191 58.8799 34.162 58.7959 33.7626C58.6534 33.0849 58.3668 32.6383 57.929 32.4117L57.5308 32.2054V29.5438V26.8822ZM42.1391 32.6422C41.9431 32.6422 39.4864 34.2976 38.2864 35.2382C31.2815 40.7285 27.0846 48.9996 26.698 58.0758C26.6501 59.1972 26.6508 60.1147 26.6991 60.1147C26.7475 60.1147 27.2451 59.818 27.805 59.4555C28.9153 58.7366 30.5211 57.9576 31.4777 57.6739C31.8118 57.5748 32.0864 57.4236 32.088 57.3377C32.0992 56.7095 32.5471 53.9511 32.7991 52.9574C34.2374 47.287 37.6018 42.1392 42.0271 38.8385L42.8918 38.1938L42.628 37.171C42.483 36.6083 42.3254 35.3591 42.2778 34.395C42.2302 33.431 42.1679 32.6422 42.1391 32.6422ZM57.102 32.6422C58.2753 32.6422 58.7011 34.3283 57.6635 34.8654C57.1791 35.1159 57.1516 35.1164 56.5874 34.8702C55.4957 34.3946 55.9004 32.6422 57.102 32.6422ZM72.1282 32.7853C72.0249 32.7853 71.9689 33.175 71.9685 33.8942C71.968 35.0783 71.6711 37.1681 71.4068 37.8489C71.3185 38.0763 71.2643 38.2718 71.2861 38.2838C72.2693 38.8205 75.0174 41.358 76.2563 42.8729C79.3029 46.5983 81.4703 51.7716 81.906 56.3571L82.0045 57.3928L82.5975 57.5495C83.3882 57.7585 85.5884 58.8411 86.4788 59.4594C86.8719 59.7324 87.2514 59.9595 87.3223 59.9638C87.5095 59.9753 87.3179 55.8492 87.0595 54.3036C85.6421 45.829 80.8041 38.3842 73.665 33.6908C72.9073 33.1927 72.2158 32.7853 72.1282 32.7853ZM58.2945 35.1269C58.4154 35.0509 58.8172 35.3845 60.106 36.515C62.6092 38.711 62.4264 38.4151 61.6865 39.0722C61.3402 39.3796 60.6508 39.8293 60.1545 40.0715C59.0764 40.5977 58.9853 40.6063 58.8992 40.19C58.7914 39.6684 58.2437 35.5982 58.2448 35.3251C58.2451 35.2231 58.2542 35.1523 58.2945 35.1269ZM55.6834 35.3681C55.8825 35.4779 55.752 36.1949 55.5387 37.6555C55.3764 38.767 55.2436 39.8644 55.2436 40.0942C55.2436 40.337 55.1688 40.5087 55.0649 40.5044C54.532 40.4819 51.9557 38.8325 51.9557 38.5138C51.9557 38.4429 52.808 37.6377 53.8498 36.7247C54.9552 35.7558 55.4842 35.2583 55.6834 35.3681ZM42.2999 46.0926C38.2164 46.0926 38.5181 45.8186 38.5181 49.5267C38.5181 52.2361 38.5208 52.2611 38.8691 52.6094C39.2199 52.9606 39.2204 52.9607 42.2999 52.9607H45.3798V52.5343V52.1078L42.4136 52.0692L39.4473 52.0307V49.5267V47.0227L42.4136 46.9838L45.3798 46.9453V46.5188V46.0926L42.2999 46.0926ZM74.0039 46.1203C73.4671 46.0992 72.7432 46.1133 71.7675 46.1259L68.7526 46.1644L68.7144 49.5627L68.6759 52.9607H69.1019H69.5277L69.5691 51.7087L69.6104 50.4567L70.9735 50.4162L72.3365 50.3757L73.3947 51.6682C74.404 52.9012 74.4789 52.961 75.02 52.961C75.5454 52.961 75.5715 52.9426 75.3757 52.7106C75.2594 52.5729 74.7882 52.0092 74.3284 51.4584L73.4925 50.4567L74.1961 50.412C75.3789 50.3366 75.5429 50.0701 75.5429 48.2244C75.5429 46.5598 75.6146 46.1833 74.0039 46.1203ZM69.6103 47.0227H72.112H74.6137L74.655 48.2747L74.6964 49.5267H72.1847C69.3073 49.5267 69.5057 49.6362 69.5679 48.0824L69.6103 47.0227ZM35.6591 64.9409V67.5832V70.2256L35.3025 70.4164C34.8379 70.6653 34.5297 71.1485 34.4884 71.6925C34.4606 72.0575 34.1521 72.3919 32.5998 73.7409C30.0309 75.9735 30.3248 75.8475 29.8807 74.9086C27.9059 70.734 30.5633 65.64 35.0359 65.0264L35.6591 64.9409ZM77.5442 64.943V67.4655C77.5442 68.8528 77.5281 69.9871 77.5085 69.986C77.4889 69.9849 77.0868 69.6173 76.6151 69.1688C73.5099 66.2169 73.7063 66.4356 73.9568 66.2087C74.3896 65.8167 76.0388 65.137 76.7938 65.0397L77.5442 64.943ZM36.5883 64.9522L37.2812 65.0444C38.3493 65.1865 40.3765 66.1143 40.3765 66.4611C40.3765 66.5292 39.8458 67.0811 39.1971 67.6876C38.5485 68.2942 37.7151 69.0653 37.3452 69.4013L36.6726 70.0125L36.6304 67.4822L36.5883 64.9522ZM78.402 64.9799H78.8353C79.0736 64.9799 79.6576 65.1111 80.133 65.2714C83.9595 66.5617 85.8572 70.6169 84.4197 74.4323C83.8499 75.9445 84.0007 75.9699 81.7256 73.9748C80.1725 72.6127 79.7061 72.1235 79.698 71.848C79.6835 71.3538 79.1899 70.5874 78.7596 70.3912L78.402 70.2283V67.6041V64.9799ZM42.4493 69.1481L42.6269 69.486C43.2254 70.6234 43.1037 73.2697 42.3815 74.8171C42.1519 75.309 41.9319 75.7114 41.8926 75.7114C41.72 75.7114 37.8281 72.1912 37.8586 72.0627C37.8773 71.984 38.9179 71.2961 40.171 70.534L42.4493 69.1481ZM71.7764 69.1895C72.3553 69.4118 76.2499 71.9455 76.2208 72.0808C76.2018 72.1695 75.3388 72.9836 74.3032 73.8898C73.2676 74.7961 72.3656 75.5715 72.2985 75.613C72.1269 75.7192 71.6149 74.7814 71.3417 73.8605C70.888 72.3314 71.201 68.9685 71.7764 69.1895ZM56.5746 70.5455L55.6777 73.0213C55.1846 74.3828 54.7364 75.5803 54.6813 75.6826C54.6229 75.791 54.2682 75.0155 53.8308 73.8225C53.4183 72.6971 52.9796 71.5029 52.8561 71.1684C52.6635 70.6468 52.5732 70.5603 52.222 70.5603C51.6993 70.5603 51.6875 70.4747 52.5309 72.8005C53.7975 76.2938 54.1475 77.2099 54.2856 77.3926C54.4823 77.6529 54.9111 77.6115 55.0272 77.3211C55.0823 77.1834 55.5449 75.9117 56.0552 74.4951C56.5656 73.0786 57.0018 71.9008 57.0246 71.878C57.0474 71.8551 57.3053 72.499 57.5979 73.3088C59.2042 77.7547 59.1232 77.5715 59.4872 77.5715C59.6827 77.5715 59.8639 77.4651 59.9136 77.3211C59.9611 77.1834 60.1446 76.6844 60.3215 76.2122C61.1543 73.989 62.2483 70.8739 62.2483 70.7255C62.2483 70.6346 62.0644 70.5603 61.8395 70.5603C61.439 70.5603 61.4124 70.6115 60.5292 73.1001C60.0334 74.4969 59.5875 75.6878 59.538 75.7463C59.4886 75.8049 59.0242 74.6781 58.5061 73.2423L57.5641 70.6318L57.0693 70.5888L56.5746 70.5455ZM77.9988 70.7034C78.9391 70.7034 79.474 71.9824 78.8252 72.6795C78.4183 73.1167 77.5588 73.1076 77.1402 72.6616C76.4389 71.9144 76.9698 70.7034 77.9988 70.7034ZM36.0016 70.7187C36.2752 70.6972 36.5727 70.7777 36.8549 70.9999C37.3354 71.3782 37.3828 72.269 36.9456 72.7066C36.5085 73.1441 35.6185 73.0967 35.2405 72.6157C34.5747 71.7685 35.1808 70.7835 36.0016 70.7187ZM37.3569 72.986L38.6167 74.0975C39.3094 74.7088 40.1978 75.5175 40.5909 75.8947L41.3057 76.5805L40.7339 77.083C39.9892 77.7371 38.7841 78.3533 37.6998 78.6346C35.597 79.18 33.207 78.5856 31.591 77.1151L30.8824 76.4701L31.3766 76.0378C31.6484 75.8 32.5411 75.0251 33.3604 74.316L34.8502 73.0268L35.2902 73.2954C35.8635 73.6453 36.5294 73.6376 36.9892 73.2756L37.3569 72.986ZM79.2703 72.9904L81.1948 74.7247C82.2534 75.6787 83.1194 76.48 83.1194 76.5055C83.1194 76.5309 82.8782 76.7803 82.5833 77.0596C81.8577 77.7471 80.6393 78.3777 79.5322 78.6389C77.9231 79.0185 76.4746 78.8402 74.8823 78.0668C74.127 77.7 72.7824 76.6145 72.8564 76.4311C72.8794 76.3741 73.7532 75.5797 74.7982 74.6657L76.6982 73.0041L77.157 73.2838C77.7408 73.6401 78.2085 73.6383 78.8004 73.2771L79.2703 72.9904ZM67.3937 82.3024L66.2864 82.7479C60.4894 85.0803 54.1657 85.1365 48.2425 82.9083L46.7455 82.3452L45.7409 83.1919C45.1884 83.6577 44.1345 84.3947 43.3986 84.8293C42.4141 85.4109 42.1119 85.6543 42.255 85.751C44.6171 87.3488 50.1381 89.0725 54.2429 89.4936C58.0717 89.8864 63.14 89.2605 67.0372 87.9135C68.5228 87.4001 71.8661 85.8667 72.0107 85.6325C72.0562 85.5587 71.5762 85.2131 70.9438 84.8643C70.3114 84.5154 69.2538 83.7961 68.5938 83.266L67.3937 82.3024Z" fill="black"/>
<path d="M57.1378 55.107L37.6948 70.7171C37.8972 71.0137 38.0106 71.3629 38.0212 71.7229L38.0223 71.7777C38.021 71.8398 38.0166 71.9018 38.0092 71.9635C38.1476 71.8181 38.9996 71.2467 40.1713 70.5341L42.4496 69.1482L42.4929 69.2304L45.0005 67.6978C45.0001 67.6869 44.9726 67.6341 44.9765 67.6307C45.0303 67.5826 45.932 67.0303 49.9547 64.5809C55.9716 60.9171 57.0717 60.2581 57.1719 60.2581L57.1378 55.107Z" fill="#C80000"/>
<path d="M60.8844 54.4316L57.1377 55.107L76.4481 70.7062C76.7087 70.352 77.0836 70.0987 77.5093 69.9891L77.5082 69.9859C77.4886 69.9848 77.0865 69.6172 76.6148 69.1687C76.2549 68.8265 76.2914 68.8512 76.0151 68.5886L65.195 58.4652C65.1708 58.4426 65.1678 58.4406 65.1434 58.4177L60.8844 54.4316Z" fill="#C80000"/>
<path d="M55.4581 5.81396L55.4162 6.85134C55.3763 7.83701 55.3898 7.88871 55.6882 7.88871C55.9985 7.88871 56.0012 7.90791 55.9096 9.49843C55.8587 10.3838 55.8164 11.6072 55.8161 12.2171C55.8155 13.2888 55.8041 13.326 55.476 13.326C55.0965 13.326 54.9578 13.7297 54.9578 14.8348V15.4494L55.8512 15.5346C56.3426 15.5814 57.1307 15.6388 57.6024 15.662C58.0742 15.6852 59.1058 15.7165 59.895 15.7313L61.3298 15.7582L61.9901 15.0785L62.6502 14.3988L62.7498 12.6636C62.8217 11.4132 62.8037 10.9001 62.685 10.8267C62.5627 10.751 62.5668 10.6687 62.7015 10.5062C62.8109 10.3743 62.903 9.74091 62.9336 8.90932L62.9841 7.53071L62.3366 6.79963L61.6894 6.06855L59.1456 5.95369C57.7465 5.89055 56.3444 5.83313 56.0299 5.82626L55.4581 5.81396ZM51.3937 6.21891L49.3589 6.5171L47.3238 6.81557L46.7117 7.60533L46.0997 8.39538L46.5886 11.8104C46.8576 13.6887 47.1298 15.2729 47.1937 15.3309C47.2575 15.3889 47.6244 15.6731 48.0089 15.9622C48.5301 16.354 48.803 16.469 49.0811 16.4144C49.2863 16.3741 50.1939 16.236 51.0981 16.1075C53.0367 15.832 52.7911 15.9483 53.444 14.9994L53.9719 14.232L53.5355 11.2074C53.2956 9.54369 53.0994 8.02618 53.0994 7.83506C53.0994 7.57685 52.8804 7.32436 52.2467 6.85301L51.3937 6.21891ZM67.0767 6.88572C66.7344 6.89058 66.5665 7.04228 66.0891 7.34795L65.2945 7.85686L64.4734 11.2068L63.6525 14.557L64.1621 15.4038L64.6719 16.2509L66.4979 16.7098C68.8972 17.3129 68.7738 17.3277 70.3724 16.2444C70.4399 16.1987 71.9714 10.0205 72.0013 9.67337C72.015 9.51392 71.8043 9.02017 71.5331 8.5762L71.04 7.7691L69.1101 7.30519C67.9355 7.02289 67.4189 6.88088 67.0767 6.88572ZM58.1027 8.04829L59.1392 8.13045C60.5516 8.24239 61.0865 8.7293 60.3582 9.23992C60.1622 9.37728 59.7649 9.45611 59.3218 9.44589C58.1645 9.41918 58.1027 9.38012 58.1027 8.67345V8.04829ZM42.0599 8.1067L39.3407 9.03508C35.8996 10.2099 36.1152 10.0429 36.509 11.2275C36.7952 12.0883 36.8576 12.173 37.1507 12.0994C37.5096 12.0092 37.4498 11.8799 38.6545 15.351C39.314 17.2515 39.3012 17.1893 39.0269 17.1893C38.6492 17.1893 38.6359 17.4768 38.9702 18.41C39.1526 18.919 39.3271 19.3356 39.3581 19.3356C39.389 19.3356 40.113 19.0942 40.9668 18.799C42.7109 18.1962 42.6904 18.2256 42.2246 16.9797C41.9615 16.2758 41.8917 16.1965 41.5984 16.2702C41.3 16.3451 41.2391 16.2669 40.9654 15.4561C40.67 14.5804 40.7061 14.3378 41.1332 14.3295C41.3624 14.3252 42.6731 15.6709 42.6072 15.8429C42.5109 16.0939 43.1195 17.9047 43.3001 17.9047C43.7375 17.9047 46.535 16.853 46.48 16.7092C46.4455 16.6191 46.3008 16.1752 46.1584 15.7227C45.8932 14.88 45.7644 14.791 45.1655 15.0377C44.9355 15.1325 44.7329 15.0127 44.1291 14.4246C43.2985 13.6154 43.2586 13.5337 43.6455 13.4325C44.1362 13.304 44.7209 11.7833 44.5437 11.0961C44.0885 9.33058 43.8618 8.96886 42.933 8.5245L42.0599 8.1067ZM50.223 8.61086C50.8789 8.6657 51.0779 9.19086 51.2991 10.6895C51.426 11.5492 51.568 12.4829 51.6146 12.7643C51.689 13.2136 51.6439 13.3223 51.2447 13.6585C50.9075 13.9425 50.6362 14.0399 50.1937 14.0367C49.1658 14.0288 49.0637 13.858 48.7206 11.5676C48.3741 9.25422 48.4621 8.88133 49.3972 8.69413C49.7351 8.62649 50.0044 8.59257 50.223 8.61086ZM75.0516 9.03452C74.8979 9.0356 73.7391 11.4258 73.8429 11.5273C73.9333 11.6157 75.5686 12.3244 75.682 12.3244C75.7389 12.3244 75.8437 12.193 75.9152 12.0326C76.0266 11.7826 76.0813 11.7676 76.2988 11.9267C76.5363 12.1005 76.5128 12.1942 75.9319 13.3986C75.5907 14.1062 75.0937 15.1865 74.8274 15.7993C74.3697 16.8523 74.3223 16.909 73.9616 16.8296C73.604 16.751 73.5543 16.8062 73.1714 17.708C72.9467 18.2373 72.8254 18.6915 72.902 18.7174C72.9786 18.7434 73.6525 19.0537 74.3994 19.4072C75.1463 19.7606 75.8098 20.0498 75.8736 20.0502C75.9374 20.0506 76.174 19.6486 76.3993 19.1567C76.8045 18.2723 76.8059 18.2599 76.5258 18.0414C76.2489 17.8253 76.2669 17.7677 77.3505 15.4251C78.1605 13.6742 78.5182 13.0421 78.6804 13.0756C78.8226 13.105 78.8894 13.2501 78.8661 13.4797C78.835 13.785 78.9464 13.8954 79.6197 14.2259C80.0542 14.4392 80.4945 14.6138 80.5983 14.6138C80.7737 14.6138 81.9407 12.2319 81.8173 12.1257C81.6659 11.9954 75.1829 9.03344 75.0516 9.03452ZM67.7805 9.27235C67.9798 9.25196 68.2216 9.29739 68.5316 9.37491C69.6701 9.65966 69.7454 10.0076 69.169 12.3244C68.8179 13.7357 68.6061 14.3235 68.3831 14.5065C67.8743 14.9237 66.7834 14.7364 66.3524 14.158L66.0665 13.774L66.4524 12.1548C66.9689 9.9882 67.1828 9.33356 67.7805 9.27235ZM41.207 10.7462C41.4542 10.7311 41.6769 10.755 41.8273 10.8329C42.4624 11.1616 42.0838 11.7885 41.0576 12.1075C40.6438 12.2361 40.2251 12.375 40.1273 12.416C39.9624 12.4853 39.8413 12.2783 39.6091 11.5307C39.5028 11.1885 40.4653 10.7918 41.207 10.7462ZM57.9598 11.609H58.9356C60.4145 11.609 61.0226 12.4117 60.2093 13.2902C59.976 13.5422 59.769 13.6074 59.257 13.5906C57.9909 13.5492 57.7803 13.48 57.8724 13.1362C57.9183 12.9651 57.9565 12.5515 57.9576 12.2171L57.9598 11.609ZM29.8213 13.5415C29.7161 13.5806 29.1693 13.9413 28.6062 14.3427C28.043 14.7441 27.0998 15.4066 26.5102 15.8152L25.438 16.558L25.2409 17.5532L25.0438 18.5486L25.8055 19.6595C26.6 20.8187 26.7009 20.8835 28.0826 21.1211C28.5257 21.1973 28.7122 21.1149 29.7127 20.4009C31.2024 19.3378 32.0854 19.422 32.0854 20.6273C32.0854 21.1131 32.0119 21.2217 31.3703 21.6831C30.6088 22.2307 30.3812 22.2944 30.1208 22.0338C29.966 21.8788 29.7958 21.9642 28.3166 22.9388C28.2264 22.9982 28.4738 23.4876 28.9474 24.1863C29.376 24.8185 29.7588 25.3363 29.7981 25.3368C30.0035 25.3401 31.4365 24.2048 31.4041 24.0647C31.3832 23.9744 31.4565 23.9197 31.5671 23.9432C31.6777 23.9666 32.1773 23.7134 32.6773 23.3806C34.3148 22.2906 34.3696 22.2262 34.5488 21.1767L34.7107 20.2279L33.7198 18.8211L32.7286 17.4143L31.7592 17.2214L30.7898 17.0286L29.642 17.8338C28.6735 18.5131 28.428 18.6246 28.0737 18.5467C27.3734 18.3927 27.5538 17.7224 28.4747 17.0557C29.1112 16.5949 29.4925 16.5112 29.7557 16.7746C29.8706 16.8897 30.1327 16.7703 30.7225 16.3342L31.5317 15.7358L31.2865 15.3535C30.4289 14.0165 29.9931 13.4775 29.8213 13.5415ZM88.2206 16.2294C87.8055 16.3888 86.9244 17.6207 87.0999 17.7963C87.3808 18.0775 87.3178 18.2188 85.388 21.6471L83.5112 24.9816L84.4228 25.8005L85.3347 26.6193L85.7761 26.3586C86.0189 26.2152 86.3825 25.9899 86.5839 25.8578L86.9502 25.6174L86.5001 26.4944L86.05 27.3711L86.9077 28.1466C87.3795 28.573 87.8138 28.922 87.8727 28.9221C87.9316 28.9222 89.3991 28.0125 91.134 26.9005C93.9259 25.1108 94.3263 24.8957 94.6177 25.0286C94.909 25.1614 95.0251 25.0992 95.6256 24.4889C95.9989 24.1096 96.2805 23.742 96.2519 23.6721C96.2231 23.6021 95.6623 23.0336 95.0055 22.4086L93.8113 21.2723L93.1237 22.0568C92.64 22.6086 92.478 22.8916 92.577 23.0111C92.7035 23.164 91.3503 24.1924 90.2412 24.7866C89.9112 24.9633 89.9087 24.9693 90.9495 23.1525L91.5909 22.033L91.043 21.4713C90.4053 20.8176 90.2235 20.7903 89.5498 21.2472C87.8189 22.421 87.3378 22.6839 87.5675 22.3304C87.6917 22.1392 88.0673 21.4815 88.4023 20.869C88.8962 19.966 89.049 19.7864 89.2095 19.9197C89.3673 20.0508 89.5451 19.9309 90.0873 19.3272C90.4614 18.9108 90.7673 18.533 90.7672 18.4877C90.7666 18.2594 88.3997 16.1605 88.2206 16.2294ZM21.2447 20.051L19.8034 21.5828L18.3619 23.1148V24.0496V24.9844L20.8264 27.4541L23.2907 29.924H24.3019H25.3132L26.7693 28.4283L28.2256 26.9326V25.9615V24.9903L25.7613 22.5207L23.2968 20.051H22.2707H21.2447ZM22.2523 22.5891C22.7135 22.5692 23.2439 23.0018 24.2615 24.0242C25.8866 25.657 26.0193 26.0598 25.2066 26.8918C24.3867 27.7312 23.9593 27.5916 22.326 25.9506C20.6885 24.3054 20.56 23.9048 21.4063 23.0838C21.7236 22.776 21.9756 22.6011 22.2523 22.5891ZM15.66 26.2163L14.9388 27.3188C14.5422 27.9252 14.2175 28.4861 14.2171 28.5652C14.2167 28.6443 14.6042 29.3774 15.0784 30.1942C15.5527 31.0111 15.9068 31.7134 15.8652 31.755C15.8237 31.7966 15.098 31.7561 14.2525 31.6642C13.4071 31.5725 12.609 31.4975 12.4793 31.4977C12.3404 31.4978 11.9458 31.9674 11.5197 32.6393L10.7957 33.7806L11.255 34.1227C12.3871 34.9657 12.5144 35.0167 12.7345 34.7154C12.9719 34.3905 12.8588 34.3343 15.6812 36.1781C17.35 37.2684 17.4893 37.3921 17.3308 37.6462C17.1289 37.9698 17.0762 37.9058 18.076 38.5558C18.5084 38.837 18.8801 39.0705 18.9021 39.0742C18.9494 39.0828 20.7921 36.2536 20.7921 36.1725C20.7921 36.0783 19.2323 35.0751 19.0858 35.0751C19.0099 35.0751 18.888 35.1822 18.8147 35.3132C18.6985 35.5211 18.5164 35.4451 17.3807 34.7143C16.6653 34.2539 16.0949 33.8623 16.1132 33.844C16.1471 33.8101 18.209 34.0128 19.0409 34.1319C19.6686 34.2218 19.6437 34.1032 18.7061 32.5306C18.2665 31.7932 17.9288 31.1684 17.9556 31.1422C17.9824 31.1159 18.5643 31.4599 19.2486 31.9065C20.2291 32.5463 20.4645 32.7637 20.3587 32.931C20.2849 33.0478 20.2236 33.1924 20.2225 33.2524C20.2198 33.3747 21.7149 34.3617 21.893 34.3555C22.021 34.3511 23.8563 31.5073 23.7748 31.4398C23.7461 31.4161 23.3408 31.155 22.8741 30.8596C22.0898 30.3633 22.012 30.3414 21.8447 30.5704C21.6098 30.8919 21.625 30.8992 19.169 29.296C17.2284 28.0293 17.0831 27.9044 17.2459 27.6435C17.3427 27.4883 17.3923 27.3357 17.3559 27.3043C17.3195 27.2729 16.9232 27.0151 16.475 26.7317L15.66 26.2163ZM97.0306 27.0312L94.1609 28.914L91.2913 30.797L91.1154 31.7819L90.9395 32.7667L92.0635 34.4902L93.1876 36.2136L94.0504 36.4185C94.5248 36.5313 94.9568 36.6292 95.0103 36.6362C95.0637 36.6431 95.6748 36.2731 96.3683 35.814C97.0618 35.3549 98.3731 34.4942 99.2824 33.9013L100.936 32.8234L101.123 31.8311L101.31 30.8384L100.198 29.1529C99.032 27.3858 98.9029 27.2799 97.7286 27.124L97.0306 27.0312ZM97.3735 29.6462C97.7962 29.5903 98.0499 29.8208 98.3867 30.3038C99.0509 31.2562 98.8626 31.5743 96.8282 32.9386C95.8975 33.5627 95.0858 34.0646 95.0245 34.0539C94.9632 34.0432 94.7683 34.0064 94.5915 33.9723C94.4146 33.9382 94.0872 33.6412 93.8638 33.3122C93.1882 32.3167 93.3719 31.9935 95.3453 30.7056C96.3589 30.0441 96.9507 29.7021 97.3735 29.6462ZM103.408 34.4471C103.343 34.375 102.892 34.4906 102.366 34.7143C101.57 35.053 101.443 35.1572 101.464 35.454C101.487 35.7715 101.291 35.8819 99.0624 36.8081C97.7278 37.3626 96.6174 37.7628 96.5942 37.6976C96.4132 37.1841 96.3068 37.1739 95.3556 37.5785C94.8371 37.7991 94.4128 37.9902 94.4128 38.003C94.4128 38.0788 95.6743 41.1071 95.7284 41.1613C95.7848 41.2178 97.5429 40.5655 97.6764 40.4386C97.7024 40.4139 97.6561 40.267 97.5734 40.1122C97.3472 39.6891 99.0863 38.9184 99.3751 39.3137C99.53 39.5258 99.5092 39.6211 99.2399 39.9311C98.3746 40.927 98.0734 41.2099 97.9559 41.1372C97.8336 41.0616 96.3215 41.5962 96.0888 41.7973C96.0278 41.85 96.2759 42.6089 96.64 43.4839L97.3023 45.0749L98.0226 44.7907C99.2694 44.2988 99.2675 44.3008 99.097 43.7447C98.9533 43.2761 98.9784 43.2153 99.6403 42.4398C100.278 41.6922 100.345 41.6501 100.465 41.9195C100.54 42.0875 100.983 42.3771 101.502 42.598L102.408 42.9834L103.592 42.5072C105.015 41.9351 105.009 41.9406 105.427 40.9059L105.759 40.0831L105.454 39.3319C103.899 35.4943 103.506 34.557 103.408 34.4471ZM9.63309 36.611C9.46018 36.8025 8.91367 38.4003 8.99371 38.4804C9.03597 38.5227 8.97934 38.6592 8.86779 38.7836C8.75622 38.908 8.43795 39.6146 8.16057 40.3539L7.65632 41.6981L8.05753 42.5843L8.45903 43.4705L9.77214 43.9825L11.0852 44.4945L11.9938 44.082C12.8288 43.703 12.9227 43.6144 13.1519 42.9853C13.8811 40.9845 14.2294 40.5968 15.0416 40.8827C15.9283 41.1948 15.682 43.2458 14.7283 43.4917C14.3468 43.5901 14.2435 43.7289 13.9585 44.5246C13.7775 45.0301 13.681 45.4636 13.7441 45.488C13.8072 45.5123 14.3091 45.7161 14.8595 45.9407C16.264 46.5139 16.2737 46.5115 16.6272 45.5413C16.7949 45.0807 16.9323 44.6354 16.9323 44.5515C16.9323 44.4676 17.0284 44.2164 17.1459 43.9937C17.2634 43.7709 17.5608 43.061 17.8065 42.4161L18.2533 41.2432L17.8261 40.3296L17.3989 39.4157L15.7859 38.8132L14.173 38.2104L13.2711 38.6036L12.3693 38.9971L11.8988 40.2664C11.524 41.2783 11.345 41.5802 11.0166 41.7532C10.6746 41.9332 10.5833 41.9374 10.4794 41.7778C10.0363 41.0974 10.4704 39.668 11.1871 39.4479C11.5479 39.3371 11.6761 39.1721 11.9198 38.5033C12.0822 38.0575 12.2149 37.6338 12.2149 37.5618C12.2149 37.381 9.7556 36.4754 9.63309 36.611ZM102.28 37.8396C102.557 37.7922 102.633 38.0085 102.922 38.8577C103.075 39.3104 103.138 39.7567 103.08 39.9875C102.883 40.7727 102.087 40.309 101.671 39.1667C101.292 38.1271 101.273 38.2202 101.922 37.9611C102.074 37.9005 102.188 37.8554 102.28 37.8396ZM106.787 44.1597C106.595 44.1706 106.346 44.2015 106.085 44.2497C105.241 44.4053 105.134 44.4616 105.134 44.7524C105.134 45.1355 105.069 45.156 101.992 45.7269C100.854 45.9382 99.9042 46.0587 99.8815 45.9946C99.71 45.5087 99.6029 45.4796 98.6455 45.6604C97.5529 45.8667 97.5643 45.8366 97.9145 47.5499C98.3066 49.4676 98.1737 49.2859 99.1012 49.1702C100.126 49.0424 100.412 48.8948 100.32 48.5417C100.259 48.3116 100.365 48.2432 100.983 48.1105C102.04 47.8836 102.275 47.9056 102.275 48.2306C102.275 48.5382 100.629 49.8976 100.503 49.6939C100.424 49.5655 98.6459 49.817 98.4861 49.9792C98.3997 50.067 98.9364 53.0413 99.0822 53.2828C99.1628 53.4163 99.1612 53.4162 100.203 53.1964L101.06 53.0156L101.026 52.4517C100.993 51.8989 101.016 51.8699 102.189 51.0026L103.386 50.1179L104.778 50.5214C106.213 50.9377 106.413 51.0768 106.419 51.6527C106.42 51.9296 106.479 51.9764 106.742 51.9134C106.919 51.8712 107.37 51.7923 107.745 51.7382C108.119 51.6841 108.46 51.5835 108.503 51.5146C108.565 51.4143 108.025 48.2696 107.921 48.1292C107.852 48.0344 105.944 48.5146 105.862 48.6476C105.801 48.7468 105.423 48.6958 104.737 48.4956C103.857 48.2387 103.705 48.1473 103.705 47.8771C103.705 47.6148 103.809 47.5435 104.312 47.4635C104.646 47.4103 105.062 47.3313 105.235 47.288C105.483 47.2262 105.57 47.2848 105.639 47.5613L105.727 47.9134L106.661 47.7175C107.679 47.504 107.89 47.4169 107.789 47.2531C107.752 47.194 107.616 46.5064 107.485 45.725C107.354 44.9435 107.2 44.2524 107.141 44.1893C107.112 44.1577 106.978 44.1487 106.787 44.1597ZM7.99778 45.6724L7.24198 46.1738C6.34953 46.7656 6.3211 46.8262 5.93586 48.9544C5.56026 51.0295 5.54458 50.8464 6.17514 51.7519C6.75485 52.5844 6.77641 52.594 8.94009 52.96C9.4439 53.0453 10.6603 53.2666 11.6431 53.4519C12.6259 53.6372 13.4621 53.7937 13.5015 53.7995C13.5408 53.8054 13.9267 53.5543 14.3592 53.2417L15.1454 52.6733L15.5282 50.6349L15.9107 48.5967L15.4844 47.928C14.844 46.9233 14.8464 46.9242 11.2999 46.276L7.99778 45.6724ZM9.47115 48.1988C9.85598 48.2203 10.3415 48.2906 10.9523 48.3994C13.2864 48.8152 13.5885 49.0179 13.449 50.0745C13.3875 50.5403 13.2495 50.8406 12.9941 51.065C12.5604 51.446 12.4972 51.4448 10.2889 51.0225C8.39097 50.6595 8.06927 50.4522 8.06927 49.5916C8.06927 48.5073 8.31667 48.134 9.47115 48.1988ZM99.1324 54.1053L99.127 55.0711C99.1254 55.6023 99.0855 56.8419 99.0385 57.8258L98.9528 59.6149L99.6681 60.3656L100.384 61.1165H102.146H103.909L104.593 60.4421L105.277 59.7678V58.447C105.277 57.2516 105.31 57.0877 105.626 56.7244L105.975 56.3231L106.271 56.6151C106.783 57.1196 106.725 58.9702 106.198 58.9702C106.037 58.9702 105.992 59.2044 105.992 60.0434V61.1165H107.344H108.697L108.702 58.2732L108.708 55.4299L108.001 54.7676L107.293 54.1053H105.992H104.691L103.913 54.8414L103.135 55.5775V56.9427C103.135 58.4822 102.891 58.9702 102.119 58.9702C101.2 58.9702 100.701 56.9715 101.491 56.4531C101.819 56.2381 101.849 56.1312 101.849 55.1619V54.1053H100.49H99.1324ZM6.62912 54.8078L5.91967 55.5143L5.21021 56.2205V58.3417V60.4628L5.88392 61.1472L6.55736 61.8319H10.0815H13.6053L14.2682 61.1226L14.931 60.4131V58.3403V56.2672L14.1911 55.5381L13.4509 54.809L12.4399 54.8506L11.4286 54.8922L11.3868 55.9296C11.3458 56.9418 11.3531 56.967 11.6889 56.967C12.643 56.967 13.1821 58.6021 12.476 59.3545C12.1788 59.6711 12.0742 59.6856 10.0907 59.6856C7.57625 59.6856 7.3545 59.5752 7.3545 58.3235C7.3545 57.5044 7.58731 57.1759 8.30407 56.984C8.70358 56.8771 8.71255 56.8531 8.71255 55.8835V54.8922L7.67085 54.8501L6.62912 54.8078Z" fill="#C80000"/>
<path d="M101.337 71.6508C100.678 71.7039 100.031 71.9849 99.5407 72.5149C98.2982 73.8587 98.6888 76.1811 100.291 76.9749C102.767 78.2018 105.25 75.7143 104.073 73.1851C103.572 72.1067 102.437 71.5624 101.337 71.6508ZM11.9092 72.8536C11.6169 72.893 11.3193 72.9809 11.0236 73.1242C8.99127 74.1089 8.97699 77.125 10.9996 78.1923C12.3463 78.9029 14.2704 78.2176 14.854 76.8195C15.7468 74.6807 13.9558 72.578 11.9092 72.8536ZM25.3856 85.7356L24.4182 86.7386L23.4507 87.7416L24.1943 88.4861C24.8644 89.1569 24.9668 89.2123 25.2295 89.0481C25.5265 88.8624 25.7952 88.923 25.7952 89.1755C25.7952 89.2525 25.0072 90.1749 24.044 91.2254C22.4226 92.9938 22.2743 93.1191 22.0427 92.915C21.754 92.6607 21.5281 92.8119 20.7712 93.7671L20.3532 94.2948L21.5376 95.4442C22.1889 96.0765 22.7563 96.5959 22.7985 96.5981C22.8408 96.6003 23.1934 96.2792 23.582 95.8844C24.2199 95.2361 24.2706 95.1379 24.1046 94.8718C23.8994 94.543 24.0618 94.3253 26.3377 91.8816C27.3458 90.7991 27.4954 90.688 27.7081 90.8646C27.9212 91.0416 27.9237 91.0883 27.7315 91.3008C27.5366 91.5164 27.5806 91.6023 28.1975 92.2105C28.5721 92.5798 28.9495 92.8821 29.0362 92.8821C29.1229 92.8821 29.5913 92.4474 30.0768 91.9162L30.9597 90.9504L29.9121 89.9488C29.3359 89.3979 28.0817 88.2246 27.1251 87.3414L25.3856 85.7356ZM86.9902 87.1586L85.2753 88.7683C83.6404 90.303 83.5602 90.4049 83.5543 90.9557C83.5489 91.4619 83.635 91.6192 84.2506 92.2262L84.9534 92.9187L85.6802 92.2921C86.3314 91.7306 86.398 91.6198 86.3237 91.2232C86.25 90.8301 86.3172 90.7134 86.9237 90.1791C87.7631 89.4395 88.3125 89.4066 88.3784 90.0919C88.4136 90.4573 88.2701 90.6694 87.4135 91.5188L86.4072 92.5165V93.5254V94.5343L87.9914 96.2122C88.8627 97.135 89.6302 97.8901 89.6968 97.8901C89.8045 97.8901 90.8005 96.9721 93.8246 94.086L94.7373 93.2146L93.7648 92.1828L92.7921 91.1508L92.0329 91.9011C91.3559 92.5704 91.2963 92.6764 91.4818 92.8815C91.6675 93.0869 91.5906 93.2097 90.7656 94.0281L89.8417 94.9448L89.3397 94.4577C88.5382 93.6801 88.6252 93.3214 89.9101 92.1071L90.9825 91.0935L90.9823 90.1793L90.9817 89.2655L90.0397 88.2119L89.0977 87.1586H88.0439H86.9902ZM31.7576 91.5943C31.7133 91.5943 31.4369 91.9898 31.1434 92.4735C30.6594 93.2709 30.6318 93.3692 30.8471 93.5268C30.9777 93.6224 31.0818 93.7577 31.0786 93.8278C31.0677 94.0629 28.3983 98.2481 28.2754 98.2226C28.2086 98.2088 28.0574 98.161 27.9395 98.1164C27.7375 98.0402 26.7339 99.4808 26.7677 99.7985C26.7747 99.8645 28.0543 100.711 29.6114 101.68C31.1685 102.65 32.4748 103.449 32.5143 103.456C32.6104 103.475 33.9435 101.277 33.9435 101.1C33.9435 100.965 32.5023 100.036 32.2929 100.036C32.2352 100.036 32.1094 100.144 32.0134 100.275C31.8541 100.493 31.7711 100.473 31.0685 100.044C30.6449 99.7847 30.2732 99.5502 30.2427 99.5224C30.1613 99.4486 31.1255 97.8901 31.2526 97.8901C31.3118 97.8901 31.8486 98.1869 32.4456 98.5496C33.0426 98.9124 33.5516 99.186 33.5769 99.1577C33.6925 99.0286 34.6583 97.4673 34.6583 97.4097C34.6583 97.374 34.1437 97.0429 33.5147 96.6738C32.2163 95.912 32.2757 96.0035 32.6687 95.3671C33.0304 94.7812 32.9349 94.7795 33.8835 95.3869C34.5756 95.8301 34.6493 95.9224 34.5145 96.1744C34.3789 96.4281 34.4613 96.5227 35.2552 97.0251C35.7466 97.3361 36.1587 97.5775 36.171 97.5614C36.1833 97.5454 36.5221 97.0042 36.9238 96.3586L37.6539 95.1846L36.4064 94.4127C32.8758 92.2277 31.831 91.5943 31.7576 91.5943ZM81.7051 91.9612C81.5612 91.8722 79.9743 92.8589 79.9743 93.0374C79.9743 93.1108 80.3361 93.7335 80.7782 94.4214C81.9194 96.1971 81.9757 96.2915 81.9757 96.4327C81.9757 96.5583 80.6179 97.4608 80.4289 97.4608C80.3748 97.4608 79.8518 96.6934 79.2668 95.7555L78.2033 94.0502L77.6575 94.3604C77.3572 94.531 76.9529 94.7994 76.759 94.9568L76.4063 95.243L77.9906 97.747C78.8618 99.1242 79.6239 100.304 79.6842 100.368C79.7445 100.433 80.4345 100.071 81.2174 99.5638C83.3485 98.184 83.1861 98.234 83.561 98.8411C83.857 99.3205 83.8635 99.3746 83.6436 99.5356C83.3246 99.7691 83.3275 99.7805 83.9298 100.688C84.2904 101.232 84.5216 101.453 84.6697 101.397C84.9645 101.283 87.4079 99.7274 87.4079 99.6529C87.4079 99.5971 86.433 98.0286 86.3218 97.9054C86.2939 97.8746 86.1656 97.9371 86.0364 98.0443C85.8318 98.2143 85.7579 98.1847 85.4618 97.8143C85.0609 97.3128 85.0351 97.0935 85.3563 96.9136C85.5648 96.7968 85.5305 96.6799 85.06 95.9048C84.4794 94.948 84.5025 94.9662 84.1247 95.1686C83.8963 95.291 83.7303 95.0974 82.8404 93.6704C82.2782 92.769 81.7674 91.9997 81.7051 91.9612ZM74.9989 95.8452C74.8956 95.8392 74.7676 95.8849 74.601 95.9545C74.3243 96.0702 72.9465 96.6229 71.5393 97.1828L68.9806 98.2006L69.245 98.8679C70.1128 101.059 69.922 100.925 71.3159 100.326C71.8916 100.079 71.9653 100 71.8913 99.7049C71.8157 99.4031 71.8886 99.3351 72.5667 99.0747C73.4569 98.7329 73.5405 98.7576 73.5448 99.3651C73.5464 99.6162 73.6737 100.659 73.8274 101.682C74.2016 104.174 74.1976 104.304 73.7414 104.477C73.4656 104.582 73.3954 104.683 73.4694 104.867C73.5244 105.004 73.7017 105.457 73.8637 105.874C74.0256 106.291 74.2283 106.601 74.3143 106.564C75.228 106.17 77.4201 105.331 77.5369 105.331C77.7549 105.331 77.7138 105.079 77.3381 104.114C77.1542 103.642 76.9323 103.272 76.845 103.292C76.7578 103.311 76.6087 103.343 76.5136 103.363C76.3952 103.388 76.2651 102.834 76.1015 101.61C75.97 100.627 75.7547 99.0219 75.6232 98.0446C75.3948 96.3468 75.3087 95.8634 74.9989 95.8452ZM40.0361 96.4218C39.6458 96.4261 39.6215 96.7364 39.3933 97.3588C39.0262 98.3602 39.0268 98.2692 39.3901 98.3643C39.746 98.4575 39.8635 98.228 38.046 100.991C36.7355 102.983 36.5917 103.151 36.2971 103.039C36.0036 102.928 35.9508 102.987 35.6831 103.73C35.522 104.178 35.3702 104.631 35.3458 104.738C35.3056 104.915 37.976 106.046 38.4327 106.046C38.6864 106.046 39.2909 104.167 39.0793 104.036C38.7391 103.826 39.0588 103.432 39.4842 103.537C40.7824 103.859 41.4272 104.456 40.6878 104.65C40.4821 104.704 39.7154 106.434 39.8413 106.56C39.8638 106.582 40.5885 106.853 41.4515 107.162C43.2111 107.791 43.0801 107.83 43.5187 106.554C43.7847 105.78 43.7843 105.78 43.4793 105.577L43.1744 105.374L43.4304 102.669C43.5713 101.182 43.7417 99.4819 43.8093 98.8917C43.9516 97.6502 43.992 97.7178 42.8776 97.3216C41.1838 96.7196 40.4267 96.4177 40.0361 96.4218ZM67.3805 98.6055C67.0413 98.6055 61.2273 99.7227 61.1467 99.8033C61.1238 99.8262 61.2219 100.419 61.3645 101.121L61.6236 102.397L62.1147 102.384C63.2122 102.355 63.6777 102.191 63.6777 101.834C63.6777 101.453 63.7961 101.388 64.7479 101.245L65.4255 101.144L65.3426 101.985C65.2969 102.448 65.2189 103.708 65.1692 104.786L65.0787 106.745L64.6641 106.836C64.4361 106.886 64.2495 106.983 64.2495 107.052C64.2495 107.195 64.5291 108.613 64.6047 108.853C64.646 108.985 68.1469 108.429 68.37 108.255C68.3955 108.235 68.3276 107.778 68.2192 107.24C68.0416 106.357 67.989 106.262 67.6876 106.274L67.3532 106.288L67.4472 104.485C67.4989 103.494 67.5823 101.766 67.6326 100.644L67.7242 98.6055L67.3805 98.6055ZM47.548 98.8643L47.4528 99.7007C47.4005 100.161 47.3266 100.65 47.2884 100.788C47.2478 100.934 47.2972 101.039 47.4073 101.04C47.9452 101.046 47.9594 101.197 47.6662 103.764C47.5094 105.137 47.3811 106.309 47.3811 106.368C47.3811 106.427 47.2249 106.475 47.034 106.475C46.7176 106.475 46.6786 106.548 46.5935 107.298C46.5421 107.75 46.4895 108.215 46.4762 108.33C46.4487 108.568 46.9689 108.684 48.7536 108.838L49.9121 108.938L50.0031 108.386C50.1792 107.319 50.1225 106.884 49.7968 106.799C49.4809 106.716 49.4764 106.337 49.7661 104.194L49.8521 103.558L50.4426 105.172C50.7674 106.059 51.0951 106.796 51.1707 106.809C51.2464 106.822 51.5785 106.414 51.9087 105.903C52.2388 105.391 52.6479 104.78 52.8178 104.544L53.1266 104.114L53.0353 105.187C52.8845 106.956 52.8315 107.141 52.4805 107.129C52.2029 107.12 52.1567 107.222 52.0452 108.091C51.9766 108.626 51.9535 109.096 51.9938 109.137C52.0341 109.177 52.7336 109.296 53.5482 109.4C54.3627 109.505 55.1066 109.598 55.2013 109.607C55.296 109.616 55.4052 109.414 55.444 109.158C55.6657 107.695 55.6724 107.477 55.4953 107.475C54.9661 107.468 54.9353 107.292 55.1553 105.532C55.2724 104.595 55.4109 103.426 55.463 102.934C55.5492 102.119 55.5871 102.04 55.8921 102.04C56.2299 102.04 56.3358 101.705 56.4338 100.332C56.4616 99.9419 56.2112 99.8569 54.5717 99.6985L53.6855 99.613L52.6542 101.196L51.6231 102.779L51.0342 101.157C50.2862 99.0967 50.398 99.2315 49.3501 99.1192C48.8569 99.0663 48.2496 98.9874 48.0007 98.9437L47.548 98.8643ZM41.238 100.286C41.3066 100.234 41.3283 100.305 41.3469 100.466C41.3697 100.662 41.3375 101.055 41.2754 101.337C41.1696 101.82 41.1389 101.843 40.7768 101.721L40.3906 101.591L40.8482 100.85C41.0541 100.516 41.1695 100.339 41.238 100.286Z" fill="#C80000"/>
<path d="M55.7839 35.6079L55.7796 35.6174L53.0752 54.7108L57.1379 55.107L57.046 36.0623C56.5889 36.0432 56.1485 35.8846 55.7839 35.6079Z" fill="#C80000"/>
</svg>
